<svg width="38" height="38" viewBox="0 0 38 38" fill="none" xmlns="http://www.w3.org/2000/svg">
<g clip-path="url(#clip0_19_1715)">
<path d="M18.87 37.74C29.2916 37.74 37.74 29.2916 37.74 18.87C37.74 8.4484 29.2916 0 18.87 0C8.4484 0 0 8.4484 0 18.87C0 29.2916 8.4484 37.74 18.87 37.74Z" fill="#F9F9FA"/>
<path d="M7.85329 18.7063C7.85329 18.7063 17.2883 14.8342 20.5605 13.4707C21.8149 12.9254 26.0688 11.1801 26.0688 11.1801C26.0688 11.1801 28.0322 10.4166 27.8685 12.2709C27.814 13.0344 27.3777 15.7067 26.9414 18.5972C26.2869 22.6876 25.578 27.1596 25.578 27.1596C25.578 27.1596 25.4689 28.414 24.5418 28.6322C23.6146 28.8503 22.0875 27.8687 21.8149 27.6505C21.5967 27.4869 17.7246 25.0327 16.3066 23.8328C15.9248 23.5056 15.4885 22.8512 16.3611 22.0877C18.3245 20.2879 20.6696 18.0519 22.0875 16.6339C22.742 15.9794 23.3964 14.4524 20.6696 16.3066C16.7974 18.979 12.9798 21.4877 12.9798 21.4877C12.9798 21.4877 12.1072 22.0331 10.4711 21.5422C8.83491 21.0515 6.92609 20.397 6.92609 20.397C6.92609 20.397 5.61727 19.5789 7.85329 18.7063Z" fill="#191919"/>
</g>
<defs>
<clipPath id="clip0_19_1715">
<rect width="37.74" height="37.74" fill="white"/>
</clipPath>
</defs>
</svg>
