<svg width="93" height="105" viewBox="0 0 93 105" fill="none" xmlns="http://www.w3.org/2000/svg">
<path d="M8.42625 94.5038L0 0H92.5875L84.15 94.4888L46.2375 105L8.42625 94.5038Z" fill="#E44F26"/>
<path d="M46.2939 96.9673L76.9314 88.4735L84.1389 7.72852H46.2939V96.9673Z" fill="#F1662A"/>
<path d="M46.0625 42.46H30.725L29.6675 30.5912H46.0625V19H17L17.2775 22.1125L20.1238 54.0512H46.0625V42.46V42.46ZM46.0625 72.5612L46.01 72.5762L33.1025 69.0925L32.2775 59.8488H20.6412L22.265 78.0437L46.01 84.6362L46.0625 84.6213V72.5612Z" fill="#191919"/>
<path d="M46 42.46V54.0513H60.2725L58.93 69.085L46 72.5725V84.6325L69.7637 78.0438L69.9362 76.0863L72.6587 45.5725L72.9437 42.46H46ZM46 19V30.5912H73.9975L74.23 27.9888L74.7588 22.1125L75.0362 19H46Z" fill="#191919"/>
</svg>
