<svg width="113" height="101" viewBox="0 0 113 101" fill="none" xmlns="http://www.w3.org/2000/svg">
<g clip-path="url(#clip0_19_1603)">
<path d="M92.9057 32.7027C91.7032 32.2886 90.4905 31.905 89.2688 31.5522C89.474 30.7106 89.663 29.8791 89.8307 29.0622C92.5839 15.6483 90.784 4.84172 84.6362 1.28369C78.7417 -2.12728 69.1017 1.42943 59.366 9.93336C58.4065 10.773 57.4683 11.6368 56.5523 12.5239C55.9391 11.934 55.315 11.3555 54.6804 10.7888C44.4768 1.6961 34.2494 -2.13614 28.1082 1.43209C22.219 4.85368 20.4752 15.0126 22.9539 27.7253C23.2005 28.9844 23.479 30.2369 23.789 31.4818C22.3413 31.8947 20.9443 32.3341 19.6074 32.8019C7.64455 36.9881 0.00488281 43.5482 0.00488281 50.3528C0.00488281 57.3808 8.20641 64.4299 20.6663 68.7043C21.6764 69.0494 22.695 69.3692 23.721 69.6633C23.3878 71.0041 23.0919 72.354 22.8338 73.7113C20.4708 86.2034 22.3161 96.1222 28.1894 99.5221C34.2556 103.033 44.4371 99.4247 54.3507 90.7267C55.1546 90.0196 55.9408 89.2924 56.7085 88.5459C57.7005 89.5065 58.719 90.4392 59.7628 91.3429C69.3661 99.6364 78.8503 102.985 84.7178 99.5762C90.7783 96.0549 92.7481 85.3994 90.1908 72.4355C89.9894 71.4199 89.7635 70.4093 89.5133 69.4046C90.2283 69.192 90.9301 68.9732 91.6143 68.7455C104.568 64.4384 112.996 57.4747 112.996 50.3528C112.996 43.5234 105.109 36.919 92.9057 32.7027ZM90.0964 64.1473C89.4785 64.3524 88.8447 64.5504 88.1985 64.7431C86.7684 60.1995 84.8388 55.3683 82.477 50.3763C84.7306 45.5035 86.5862 40.7339 87.976 36.2199C89.132 36.5557 90.2535 36.9097 91.3349 37.2831C101.791 40.8961 108.169 46.2371 108.169 50.3528C108.169 54.7366 101.281 60.4276 90.0964 64.1473ZM85.4558 73.3764C86.5866 79.1086 86.7477 84.2915 85.9987 88.3435C85.3261 91.9843 83.9728 94.4114 82.2991 95.3838C78.7386 97.4525 71.1237 94.7636 62.9111 87.6706C61.9402 86.8304 60.9928 85.9633 60.07 85.0703C63.254 81.5756 66.4359 77.513 69.5414 73.0008C75.0037 72.5144 80.1642 71.7188 84.8441 70.633C85.0695 71.5425 85.2735 72.4572 85.4558 73.3764ZM38.5259 95.0263C35.047 96.2591 32.2761 96.2946 30.6011 95.3253C27.037 93.2623 25.5553 85.298 27.5764 74.615C27.8166 73.3526 28.0917 72.0972 28.4013 70.8501C33.0295 71.8778 38.1525 72.6167 43.6277 73.0623C46.7543 77.4776 50.028 81.5357 53.3272 85.0893C52.6261 85.7702 51.9083 86.4337 51.1746 87.0792C46.7905 90.9252 42.3976 93.6539 38.5259 95.0263ZM22.2278 64.1203C16.7182 62.2301 12.1681 59.7738 9.04943 57.0933C6.24673 54.6848 4.83214 52.2931 4.83214 50.3528C4.83214 46.2234 10.9659 40.9563 21.1964 37.3766C22.4379 36.9424 23.7373 36.5327 25.0857 36.1482C26.4999 40.764 28.3545 45.5903 30.5927 50.4707C28.3254 55.4232 26.4443 60.3266 25.0164 64.997C24.0799 64.7277 23.1501 64.4354 22.2278 64.1203ZM27.6911 26.7946C25.5677 15.903 26.9779 7.687 30.5269 5.62491C34.3068 3.42861 42.6655 6.56005 51.4756 14.4115C52.0501 14.9246 52.6153 15.4482 53.171 15.9818C49.888 19.5199 46.6444 23.548 43.5456 27.9371C38.2315 28.4314 33.1447 29.2252 28.4679 30.2888C28.1798 29.131 27.9208 27.966 27.6911 26.795V26.7946ZM76.4303 38.8738C75.3256 36.9588 74.18 35.0679 72.9942 33.2023C76.5993 33.6599 80.0535 34.2673 83.2971 35.0097C82.3234 38.1425 81.1096 41.4175 79.6809 44.7753C78.6366 42.7866 77.5528 40.8191 76.4303 38.8738ZM56.5545 19.4442C58.7808 21.8651 61.0106 24.5677 63.2037 27.5003C58.7547 27.2894 54.2983 27.2885 49.8492 27.4976C52.0446 24.5921 54.2934 21.893 56.5545 19.4442ZM36.5512 38.9071C35.4426 40.8366 34.3791 42.7919 33.3614 44.7713C31.9561 41.4254 30.7533 38.1354 29.7713 34.9583C32.9951 34.2345 36.4329 33.6427 40.015 33.1935C38.816 35.0704 37.6611 36.9753 36.5512 38.9066V38.9071ZM40.1179 67.8569C36.417 67.4422 32.9275 66.881 29.7046 66.1766C30.7021 62.9429 31.9314 59.5828 33.3671 56.1652C34.3888 58.1461 35.4568 60.1025 36.5702 62.033C37.7151 64.0175 38.9006 65.9613 40.1179 67.8569ZM56.6878 81.6026C54.3997 79.1255 52.1178 76.3847 49.8894 73.4371C52.053 73.5222 54.2585 73.5656 56.5002 73.5656C58.8033 73.5656 61.0799 73.5137 63.3207 73.4136C61.1205 76.4144 58.899 79.1591 56.6878 81.6026ZM79.7264 55.9907C81.2368 59.4459 82.5097 62.7883 83.5204 65.9667C80.2446 66.7171 76.7074 67.3213 72.9805 67.77C74.1748 65.8699 75.3312 63.9461 76.4492 61.9998C77.5859 60.0214 78.6786 58.0179 79.7264 55.9907ZM72.2681 59.5793C70.5566 62.5634 68.7488 65.4908 66.8477 68.357C63.4039 68.6018 59.9526 68.7234 56.5002 68.7216C52.9838 68.7216 49.5636 68.6117 46.2701 68.3973C44.3194 65.5378 42.4771 62.6052 40.7473 59.6059H40.7477C39.026 56.6224 37.4178 53.5744 35.9266 50.4685C37.414 47.3618 39.0173 44.3124 40.7332 41.3266L40.7327 41.3271C42.4479 38.3406 44.2754 35.4206 46.2114 32.5733C49.5716 32.3181 53.0174 32.1853 56.4998 32.1853H56.5002C59.9985 32.1853 63.4487 32.3195 66.808 32.5764C68.7244 35.4194 70.5403 38.3294 72.2522 41.3009C73.9738 44.2801 75.5983 47.3146 77.1232 50.3998C75.6139 53.5165 73.9946 56.5783 72.2681 59.5793ZM82.2254 5.4805C86.0089 7.67061 87.4804 16.5023 85.1032 28.0841C84.9513 28.823 84.781 29.5756 84.5956 30.3389C79.9074 29.2527 74.817 28.4452 69.4875 27.9433C66.3829 23.5059 63.1658 19.4717 59.9363 15.9792C60.7827 15.1603 61.6492 14.3627 62.5351 13.5871C70.8769 6.30135 78.6733 3.42462 82.2254 5.4805ZM56.5002 40.2263C62.0725 40.2263 66.5899 44.7602 66.5899 50.3528C66.5899 55.9455 62.0725 60.4794 56.5002 60.4794C50.9279 60.4794 46.4105 55.9455 46.4105 50.3528C46.4105 44.7602 50.9279 40.2263 56.5002 40.2263Z" fill="#00D8FF"/>
</g>
<defs>
<clipPath id="clip0_19_1603">
<rect width="113" height="101" fill="white"/>
</clipPath>
</defs>
</svg>
