<svg width="115" height="90" viewBox="0 0 115 90" fill="none" xmlns="http://www.w3.org/2000/svg">
<path d="M28.75 30C32.5833 10 42.1667 0 57.5 0C80.5 0 83.375 22.5 94.875 26.25C102.542 28.75 109.25 25 115 15C111.167 35 101.583 45 86.25 45C63.25 45 60.375 22.5 48.875 18.75C41.2083 16.25 34.5 20 28.75 30ZM0 75C3.83333 55 13.4167 45 28.75 45C51.75 45 54.625 67.5 66.125 71.25C73.7917 73.75 80.5 70 86.25 60C82.4167 80 72.8333 90 57.5 90C34.5 90 31.625 67.5 20.125 63.75C12.4583 61.25 5.75 65 0 75Z" fill="#44A8B3"/>
</svg>
