<svg width="199" height="17" viewBox="0 0 199 17" fill="none" xmlns="http://www.w3.org/2000/svg">
<path d="M2.06641 16.2C1.57307 16.2 1.17974 16.06 0.886406 15.78C0.606407 15.4867 0.466407 15.1 0.466407 14.62C0.466407 14.1133 0.606407 13.7133 0.886406 13.42C1.17974 13.1267 1.57307 12.98 2.06641 12.98C2.55974 12.98 2.94641 13.1267 3.22641 13.42C3.51974 13.7133 3.66641 14.1133 3.66641 14.62C3.66641 15.1 3.51974 15.4867 3.22641 15.78C2.94641 16.06 2.55974 16.2 2.06641 16.2ZM9.65859 16V1.4H11.7986L13.4586 6.36C13.5919 6.74667 13.7186 7.14 13.8386 7.54C13.9586 7.94 14.0453 8.25333 14.0986 8.48C14.1653 8.25333 14.2519 7.94 14.3586 7.54C14.4786 7.14 14.6053 6.74 14.7386 6.34L16.3186 1.4H18.4586V16H16.8986V9.76C16.8986 9.2 16.9119 8.58 16.9386 7.9C16.9786 7.20667 17.0253 6.51333 17.0786 5.82C17.1319 5.12667 17.1853 4.46667 17.2386 3.84C17.2919 3.2 17.3386 2.65333 17.3786 2.2L14.9186 9.58H13.2386L10.7586 2.2C10.8119 2.65333 10.8653 3.18667 10.9186 3.8C10.9719 4.4 11.0186 5.04667 11.0586 5.74C11.0986 6.42 11.1319 7.10667 11.1586 7.8C11.1986 8.49333 11.2186 9.14667 11.2186 9.76V16H9.65859ZM21.8108 16V14.56H25.7308V6.44H22.3108V5H27.3308V14.56H31.0508V16H21.8108ZM26.3508 2.98C25.9374 2.98 25.6041 2.87333 25.3508 2.66C25.1108 2.44667 24.9908 2.15333 24.9908 1.78C24.9908 1.39333 25.1108 1.08667 25.3508 0.859999C25.6041 0.633332 25.9374 0.519999 26.3508 0.519999C26.7641 0.519999 27.0908 0.633332 27.3308 0.859999C27.5841 1.08667 27.7108 1.39333 27.7108 1.78C27.7108 2.14 27.5841 2.43333 27.3308 2.66C27.0908 2.87333 26.7641 2.98 26.3508 2.98ZM34.043 16V1.4H35.623V9.62H37.883L41.143 5H42.983L39.283 10.24L43.043 16H41.183L37.903 11H35.623V16H34.043ZM45.9752 16V1.4H47.5552V4.84V6.96H47.9552L47.5152 7.6C47.5152 6.72 47.7818 6.03333 48.3152 5.54C48.8618 5.04667 49.6018 4.8 50.5352 4.8C51.6285 4.8 52.5018 5.14667 53.1552 5.84C53.8085 6.52 54.1352 7.44667 54.1352 8.62V16H52.5552V8.8C52.5552 7.96 52.3352 7.30667 51.8952 6.84C51.4552 6.37333 50.8552 6.14 50.0952 6.14C49.3085 6.14 48.6885 6.38667 48.2352 6.88C47.7818 7.37333 47.5552 8.06 47.5552 8.94V16H45.9752ZM61.1673 16.2C60.0073 16.2 59.094 15.9067 58.4273 15.32C57.7607 14.72 57.4273 13.9133 57.4273 12.9C57.4273 11.9 57.754 11.1133 58.4073 10.54C59.0607 9.95333 59.9407 9.66 61.0473 9.66H64.5473V8.5C64.5473 7.76667 64.334 7.2 63.9073 6.8C63.4807 6.4 62.874 6.2 62.0873 6.2C61.394 6.2 60.814 6.35333 60.3473 6.66C59.894 6.96667 59.634 7.38 59.5673 7.9H57.9673C58.1007 6.95333 58.5407 6.2 59.2873 5.64C60.0473 5.08 60.994 4.8 62.1273 4.8C63.354 4.8 64.3273 5.13333 65.0473 5.8C65.7673 6.45333 66.1273 7.34 66.1273 8.46V16H64.5673V13.86H64.3073L64.6073 13.54C64.6073 14.3533 64.294 15 63.6673 15.48C63.0407 15.96 62.2073 16.2 61.1673 16.2ZM61.5473 14.92C62.4273 14.92 63.1473 14.7 63.7073 14.26C64.2673 13.82 64.5473 13.2467 64.5473 12.54V10.88H61.0673C60.4407 10.88 59.9407 11.0533 59.5673 11.4C59.194 11.7467 59.0073 12.22 59.0073 12.82C59.0073 13.46 59.234 13.9733 59.6873 14.36C60.1407 14.7333 60.7607 14.92 61.5473 14.92ZM69.7795 16V14.56H73.6995V6.44H70.2795V5H75.2995V14.56H79.0195V16H69.7795ZM74.3195 2.98C73.9062 2.98 73.5729 2.87333 73.3195 2.66C73.0795 2.44667 72.9595 2.15333 72.9595 1.78C72.9595 1.39333 73.0795 1.08667 73.3195 0.859999C73.5729 0.633332 73.9062 0.519999 74.3195 0.519999C74.7329 0.519999 75.0595 0.633332 75.2995 0.859999C75.5529 1.08667 75.6795 1.39333 75.6795 1.78C75.6795 2.14 75.5529 2.43333 75.2995 2.66C75.0595 2.87333 74.7329 2.98 74.3195 2.98ZM87.4517 16C86.8251 16 86.2784 15.88 85.8117 15.64C85.3584 15.4 85.0051 15.0533 84.7517 14.6C84.4984 14.1467 84.3717 13.6133 84.3717 13V2.84H80.7117V1.4H85.9517V13C85.9517 13.4933 86.0851 13.88 86.3517 14.16C86.6184 14.4267 86.9851 14.56 87.4517 14.56H90.9517V16H87.4517ZM93.9439 16V1.4H95.5239V7.74H97.9239L101.164 1.4H102.904L99.3239 8.4L103.104 16H101.264L97.8839 9.14H95.5239V16H93.9439ZM109.976 16.2C108.736 16.2 107.743 15.8267 106.996 15.08C106.263 14.3333 105.896 13.32 105.896 12.04V5H107.476V12.04C107.476 12.9067 107.696 13.5867 108.136 14.08C108.589 14.56 109.203 14.8 109.976 14.8C110.763 14.8 111.383 14.56 111.836 14.08C112.289 13.5867 112.516 12.9067 112.516 12.04V5H114.096V12.04C114.096 13.32 113.723 14.3333 112.976 15.08C112.229 15.8267 111.229 16.2 109.976 16.2ZM117.848 16V14.44L124.108 6.44H118.028V5H125.888V6.58L119.548 14.56H126.128V16H117.848ZM129.92 16V5H131.5V7.04H131.9L131.46 7.62C131.46 6.74 131.727 6.05333 132.26 5.56C132.807 5.05333 133.547 4.8 134.48 4.8C135.574 4.8 136.447 5.14667 137.1 5.84C137.754 6.52 138.08 7.44667 138.08 8.62V16H136.5V8.8C136.5 7.96 136.28 7.31333 135.84 6.86C135.4 6.40667 134.8 6.18 134.04 6.18C133.254 6.18 132.634 6.42 132.18 6.9C131.727 7.38 131.5 8.06 131.5 8.94V16H129.92ZM145.973 16.2C145.119 16.2 144.379 16.0333 143.753 15.7C143.126 15.3533 142.639 14.8667 142.293 14.24C141.946 13.6133 141.773 12.8867 141.773 12.06V8.94C141.773 8.1 141.946 7.37333 142.293 6.76C142.639 6.13333 143.126 5.65333 143.753 5.32C144.379 4.97333 145.119 4.8 145.973 4.8C146.826 4.8 147.566 4.97333 148.193 5.32C148.819 5.65333 149.306 6.13333 149.653 6.76C149.999 7.37333 150.173 8.1 150.173 8.94V10.88H143.333V12.06C143.333 12.9533 143.559 13.6467 144.013 14.14C144.479 14.62 145.133 14.86 145.973 14.86C146.679 14.86 147.253 14.72 147.693 14.44C148.146 14.16 148.433 13.7533 148.553 13.22H150.133C149.986 14.14 149.539 14.8667 148.793 15.4C148.046 15.9333 147.106 16.2 145.973 16.2ZM148.613 9.82V8.94C148.613 8.04667 148.386 7.36 147.933 6.88C147.479 6.38667 146.826 6.14 145.973 6.14C145.133 6.14 144.479 6.38667 144.013 6.88C143.559 7.36 143.333 8.04667 143.333 8.94V9.64H148.773L148.613 9.82ZM159.165 16C158.245 16 157.532 15.76 157.025 15.28C156.518 14.7867 156.265 14.0933 156.265 13.2V6.44H153.145V5H156.265V1.9H157.865V5H162.285V6.44H157.865V13.2C157.865 14.1067 158.298 14.56 159.165 14.56H162.085V16H159.165ZM169.557 16.18C168.837 16.18 168.204 16.06 167.657 15.82C167.11 15.58 166.677 15.2467 166.357 14.82C166.037 14.38 165.844 13.8733 165.777 13.3H167.357C167.45 13.74 167.684 14.0933 168.057 14.36C168.444 14.6267 168.944 14.76 169.557 14.76H170.537C171.244 14.76 171.777 14.6067 172.137 14.3C172.51 13.98 172.697 13.56 172.697 13.04C172.697 12.5467 172.537 12.1467 172.217 11.84C171.897 11.5333 171.437 11.3333 170.837 11.24L169.177 10.98C168.137 10.8067 167.35 10.4733 166.817 9.98C166.297 9.48667 166.037 8.79333 166.037 7.9C166.037 6.92667 166.35 6.17333 166.977 5.64C167.617 5.09333 168.537 4.82 169.737 4.82H170.517C171.557 4.82 172.39 5.06667 173.017 5.56C173.657 6.05333 174.044 6.72 174.177 7.56H172.577C172.497 7.16 172.277 6.84 171.917 6.6C171.57 6.36 171.104 6.24 170.517 6.24H169.737C169.03 6.24 168.504 6.38667 168.157 6.68C167.81 6.96 167.637 7.36667 167.637 7.9C167.637 8.38 167.784 8.74667 168.077 9C168.37 9.24 168.817 9.40667 169.417 9.5L171.057 9.76C172.15 9.93333 172.964 10.28 173.497 10.8C174.03 11.3067 174.297 12.02 174.297 12.94C174.297 13.94 173.977 14.7333 173.337 15.32C172.697 15.8933 171.764 16.18 170.537 16.18H169.557ZM181.949 16.18C181.096 16.18 180.356 16.0133 179.729 15.68C179.103 15.3467 178.616 14.8667 178.269 14.24C177.923 13.6133 177.749 12.8733 177.749 12.02V8.98C177.749 8.11333 177.923 7.37333 178.269 6.76C178.616 6.13333 179.103 5.65333 179.729 5.32C180.356 4.98667 181.096 4.82 181.949 4.82C182.803 4.82 183.543 4.98667 184.169 5.32C184.796 5.65333 185.283 6.13333 185.629 6.76C185.976 7.37333 186.149 8.10667 186.149 8.96V12.02C186.149 12.8733 185.976 13.6133 185.629 14.24C185.283 14.8667 184.796 15.3467 184.169 15.68C183.543 16.0133 182.803 16.18 181.949 16.18ZM181.949 14.76C182.776 14.76 183.416 14.5267 183.869 14.06C184.323 13.5933 184.549 12.9133 184.549 12.02V8.98C184.549 8.08667 184.316 7.40667 183.849 6.94C183.396 6.47333 182.763 6.24 181.949 6.24C181.136 6.24 180.496 6.47333 180.029 6.94C179.576 7.40667 179.349 8.08667 179.349 8.98V12.02C179.349 12.9133 179.576 13.5933 180.029 14.06C180.496 14.5267 181.136 14.76 181.949 14.76ZM192.881 16L189.161 5H190.781L193.321 12.62C193.455 13.0333 193.581 13.4467 193.701 13.86C193.821 14.26 193.915 14.5733 193.981 14.8C194.048 14.5733 194.141 14.26 194.261 13.86C194.381 13.4467 194.508 13.0333 194.641 12.62L197.121 5H198.721L195.001 16H192.881Z" fill="#397D8C" fill-opacity="0.9"/>
</svg>
