<svg width="66" height="27" viewBox="0 0 66 27" fill="none" xmlns="http://www.w3.org/2000/svg">
<path d="M7.94863 21.24C7.11663 21.0053 6.49796 20.8347 6.09263 20.728C5.68729 20.6 5.28196 20.3867 4.87663 20.088C4.08729 19.832 3.44729 19.5227 2.95663 19.16C2.46596 18.776 1.97529 18.3173 1.48463 17.784L0.300625 16.376L0.0766251 15.416C0.247292 15.3733 0.492625 15.256 0.812625 15.064C1.13263 14.8507 1.31396 14.7333 1.35663 14.712C1.59129 14.52 1.85796 14.328 2.15663 14.136C2.45529 13.9227 2.86063 13.6667 3.37263 13.368C3.88463 13.0693 4.56729 12.6853 5.42063 12.216C6.31663 11.7893 6.93529 11.4587 7.27663 11.224C7.61796 10.9893 7.91663 10.7867 8.17263 10.616C8.32196 10.5093 8.49263 10.392 8.68463 10.264C8.89796 10.136 9.04729 10.0827 9.13263 10.104C9.26063 10.0827 9.35663 10.0933 9.42063 10.136C9.48463 10.1573 9.55929 10.2107 9.64463 10.296C9.81529 10.5093 10.0073 10.648 10.2206 10.712C10.4553 10.7547 10.5726 10.8613 10.5726 11.032C10.5726 11.032 10.53 11.1173 10.4446 11.288C10.3593 11.4373 10.2313 11.5653 10.0606 11.672C9.74063 11.8427 9.39929 12.0133 9.03663 12.184C8.67396 12.3547 8.21529 12.5893 7.66063 12.888C7.10596 13.1867 6.34863 13.624 5.38863 14.2C4.81263 14.5413 4.30063 14.8293 3.85263 15.064C3.42596 15.2987 3.09529 15.5227 2.86063 15.736C2.64729 15.928 2.56196 16.1627 2.60463 16.44C2.79663 16.8667 3.39396 17.3467 4.39663 17.88C5.42063 18.4133 6.74329 18.9253 8.36463 19.416C8.94063 19.544 9.44196 19.7147 9.86863 19.928C10.2953 20.1413 10.5833 20.3547 10.7326 20.568C10.882 20.7813 10.8073 20.9733 10.5086 21.144C10.402 21.1653 10.2313 21.208 9.99663 21.272C9.78329 21.3147 9.50596 21.3467 9.16463 21.368C8.84463 21.368 8.43929 21.3253 7.94863 21.24Z" fill="#2EB755"/>
<path d="M28.0539 21.656C27.9472 21.6133 27.7872 21.5067 27.5739 21.336C27.3605 21.1653 27.1792 20.8773 27.0299 20.472C26.8805 20.0453 26.8059 19.4587 26.8059 18.712C26.8272 18.072 26.8379 17.5707 26.8379 17.208C26.8592 16.8453 26.7845 16.664 26.6139 16.664C26.4432 16.664 26.1125 16.8347 25.6219 17.176C25.1525 17.496 24.6085 17.9333 23.9899 18.488C23.3712 19.0427 22.7419 19.6613 22.1019 20.344C21.8885 20.5787 21.6752 20.8027 21.4619 21.016C21.2699 21.208 21.0779 21.336 20.8859 21.4C20.6939 21.4427 20.4699 21.368 20.2139 21.176L19.8619 20.888C19.7552 20.7813 19.6912 20.6747 19.6699 20.568C19.6485 20.44 19.6592 20.3013 19.7019 20.152L20.4379 18.04C20.7792 17.272 21.0139 16.7173 21.1419 16.376C21.2699 16.0133 21.3339 15.7893 21.3339 15.704C21.3339 15.5973 21.3019 15.5547 21.2379 15.576C21.0672 15.5973 20.8112 15.704 20.4699 15.896C20.1285 16.0667 19.9045 16.2373 19.7979 16.408C19.7125 16.408 19.5845 16.504 19.4139 16.696C19.2432 16.888 19.0299 17.0693 18.7739 17.24C18.6245 17.496 18.3259 17.8267 17.8779 18.232C17.4512 18.6373 17.0245 19.0533 16.5979 19.48C16.3205 19.7147 16.0432 20.0027 15.7659 20.344C15.5099 20.6853 15.2859 20.984 15.0939 21.24C14.9232 21.496 14.8059 21.624 14.7419 21.624C14.4645 21.624 14.2085 21.5493 13.9739 21.4C13.7605 21.2507 13.6005 21.0053 13.4939 20.664C13.3232 20.3013 13.3232 19.8 13.4939 19.16C13.6645 18.4987 13.8565 17.6453 14.0699 16.6C14.1552 16.28 14.2085 16.0453 14.2299 15.896C14.2512 15.7467 14.2832 15.5973 14.3259 15.448C14.3899 15.2773 14.4859 15.0213 14.6139 14.68C14.7632 14.3387 14.9872 13.8267 15.2859 13.144C15.4352 12.7387 15.5205 12.44 15.5419 12.248C15.5845 12.0347 15.6059 11.8853 15.6059 11.8C15.6059 11.5867 15.6592 11.4053 15.7659 11.256C15.8939 11.1067 16.0432 11 16.2139 10.936C16.3845 10.872 16.5445 10.8613 16.6939 10.904C16.9285 10.9467 17.1312 11.064 17.3019 11.256C17.4939 11.448 17.6005 11.7147 17.6219 12.056C17.6432 12.312 17.6219 12.5467 17.5579 12.76C17.4939 12.952 17.4299 13.1333 17.3659 13.304L17.0139 14.168C16.9072 14.4027 16.7685 14.744 16.5979 15.192C16.4272 15.64 16.2779 16.056 16.1499 16.44C16.0219 16.8027 15.9579 17.016 15.9579 17.08C15.9792 17.144 16.0539 17.1333 16.1819 17.048C16.3099 16.9413 16.4699 16.8027 16.6619 16.632C16.8752 16.44 17.0885 16.2587 17.3019 16.088C17.7499 15.6613 18.2512 15.256 18.8059 14.872C19.3819 14.4667 19.9259 14.1253 20.4379 13.848C20.9499 13.5707 21.3445 13.3893 21.6219 13.304C21.9845 13.304 22.2299 13.368 22.3579 13.496C22.5072 13.624 22.7525 13.8587 23.0939 14.2C23.2432 14.3493 23.3285 14.5413 23.3499 14.776C23.3712 15.0107 23.3605 15.2347 23.3179 15.448C23.2965 15.5333 23.2325 15.7467 23.1259 16.088C23.0192 16.408 22.9125 16.7173 22.8059 17.016C22.7205 17.3147 22.6779 17.464 22.6779 17.464C22.6779 17.464 22.7952 17.3573 23.0299 17.144C23.2859 16.9307 23.5632 16.7067 23.8619 16.472C24.1605 16.216 24.3845 16.024 24.5339 15.896C25.3659 15.256 26.0912 14.8507 26.7099 14.68C27.3285 14.5093 27.8299 14.7333 28.2139 15.352C28.4699 15.5867 28.5979 15.8427 28.5979 16.12C28.6192 16.3973 28.6299 16.8773 28.6299 17.56C28.6512 17.8373 28.6725 18.168 28.6939 18.552C28.7152 18.936 28.7365 19.288 28.7579 19.608C28.8005 19.9067 28.8432 20.088 28.8859 20.152C28.9499 20.2373 29.0672 20.312 29.2379 20.376C29.4299 20.4187 29.6752 20.4613 29.9739 20.504C30.2939 20.5467 30.4859 20.6853 30.5499 20.92C30.6139 21.1547 30.4752 21.3787 30.1339 21.592C29.8139 21.784 29.4619 21.8693 29.0779 21.848C28.6939 21.8267 28.3525 21.7627 28.0539 21.656ZM31.7521 22.296C31.5388 22.1467 31.3788 22.008 31.2721 21.88C31.1655 21.752 31.1228 21.5707 31.1441 21.336C31.1868 21.016 31.2508 20.6853 31.3361 20.344C31.4215 19.9813 31.5281 19.6293 31.6561 19.288C31.7201 18.904 31.7948 18.52 31.8801 18.136C31.9868 17.752 32.1575 17.3893 32.3921 17.048C32.6695 16.2587 32.9575 15.48 33.2561 14.712C33.5548 13.9227 33.8108 13.1013 34.0241 12.248C34.3441 11.48 34.6321 10.7973 34.8881 10.2C35.1655 9.60267 35.4961 8.83467 35.8801 7.896C36.0935 7.40533 36.2748 6.86133 36.4241 6.264C36.5948 5.64533 36.8508 5.10133 37.1921 4.632C37.3415 4.44 37.4481 4.28 37.5121 4.152C37.5975 4.00267 37.6828 3.864 37.7681 3.736C37.8108 3.608 37.9495 3.56533 38.1841 3.608C38.4401 3.65067 38.6215 3.74667 38.7281 3.896C38.8348 3.87467 38.9628 4.01333 39.1121 4.312C39.2615 4.61067 39.3148 4.84533 39.2721 5.016C39.2721 5.25067 39.1868 5.50667 39.0161 5.784C38.9308 5.86933 38.8455 5.99733 38.7601 6.168C38.6748 6.31733 38.5468 6.52 38.3761 6.776C38.2908 7.05333 38.2055 7.33067 38.1201 7.608C38.0348 7.88533 37.9388 8.14133 37.8321 8.376C37.7255 8.61067 37.6081 8.84533 37.4801 9.08C37.3521 9.31467 37.2668 9.50667 37.2241 9.656C37.0321 10.1467 36.8188 10.6267 36.5841 11.096C36.3708 11.544 36.1788 12.024 36.0081 12.536C35.8375 13.0267 35.6561 13.5493 35.4641 14.104C35.2935 14.6373 35.0588 15.1493 34.7601 15.64C34.6108 15.8533 34.4935 16.1413 34.4081 16.504C34.3228 16.8667 34.2375 17.2187 34.1521 17.56C34.0028 17.944 33.8641 18.296 33.7361 18.616C33.6295 18.936 33.5761 19.1387 33.5761 19.224C33.4268 19.6933 33.3095 20.1627 33.2241 20.632C33.1388 21.08 33.0001 21.4747 32.8081 21.816C32.7868 22.136 32.6908 22.3493 32.5201 22.456C32.3708 22.5627 32.1148 22.5093 31.7521 22.296ZM39.4001 22.808C39.0588 22.7653 38.8028 22.7013 38.6321 22.616C38.4615 22.5093 38.1415 22.2853 37.6721 21.944C37.4161 21.688 37.0641 21.2933 36.6161 20.76C36.1681 20.2267 35.7201 19.6613 35.2721 19.064C34.8241 18.4453 34.4508 17.9227 34.1521 17.496L35.4641 15.736C35.7415 16.0773 35.9655 16.3973 36.1361 16.696C36.3068 16.9947 36.4455 17.1973 36.5521 17.304C37.0428 18.0293 37.4268 18.616 37.7041 19.064C38.0028 19.512 38.2695 19.8747 38.5041 20.152C38.7388 20.4293 38.9841 20.6747 39.2401 20.888C39.5175 21.1013 39.8588 21.3253 40.2641 21.56C40.3281 21.6027 40.3921 21.6667 40.4561 21.752C40.5201 21.8373 40.5415 21.9653 40.5201 22.136C40.4348 22.3707 40.3388 22.52 40.2321 22.584C40.1468 22.6267 39.8695 22.7013 39.4001 22.808ZM34.0561 17.144C33.9281 16.7813 33.9708 16.4187 34.1841 16.056C34.4188 15.672 34.6748 15.4053 34.9521 15.256C35.0375 15.1067 35.1228 15.0107 35.2081 14.968C35.3148 14.904 35.3788 14.8293 35.4001 14.744C35.4428 14.6587 35.5495 14.5413 35.7201 14.392C35.9121 14.2427 36.0828 14.104 36.2321 13.976C36.5735 13.7627 36.9575 13.5067 37.3841 13.208C37.8321 12.888 38.2588 12.568 38.6641 12.248C39.0695 11.928 39.4108 11.6507 39.6881 11.416C39.9868 11.1813 40.1681 11.032 40.2321 10.968C40.2961 10.8827 40.3815 10.8293 40.4881 10.808C40.6161 10.7653 40.7761 10.7867 40.9681 10.872C41.2241 10.936 41.3948 11.0427 41.4801 11.192C41.5655 11.32 41.6081 11.576 41.6081 11.96C41.6721 12.1947 41.5761 12.4507 41.3201 12.728C41.0855 12.984 40.7228 13.272 40.2321 13.592C40.0615 13.6987 39.8268 13.8587 39.5281 14.072C39.2508 14.2853 39.0055 14.488 38.7921 14.68C38.6428 14.7653 38.4188 14.9147 38.1201 15.128C37.8428 15.32 37.5975 15.512 37.3841 15.704C37.2135 15.8107 36.9895 16.0027 36.7121 16.28C36.4348 16.536 36.1575 16.728 35.8801 16.856C35.1975 17.496 34.7495 17.8373 34.5361 17.88C34.3228 17.9227 34.1628 17.6773 34.0561 17.144Z" fill="#EBE8E3"/>
<path d="M42.1596 26.008C41.5196 26.0293 41.157 25.688 41.0716 24.984C40.9863 24.28 41.1996 23.3733 41.7116 22.264C41.8396 22.0293 41.9676 21.8053 42.0956 21.592C42.2236 21.3573 42.2983 21.1653 42.3196 21.016C42.3836 20.888 42.5543 20.5573 42.8316 20.024C43.1303 19.4693 43.4823 18.808 43.8876 18.04C44.3143 17.272 44.7516 16.472 45.1996 15.64C45.669 14.808 46.1063 14.0293 46.5116 13.304C46.917 12.5573 47.2583 11.9387 47.5356 11.448C47.813 10.9573 47.973 10.6907 48.0156 10.648C48.101 10.6693 48.1863 10.616 48.2716 10.488C48.3783 10.3387 48.4423 10.1893 48.4636 10.04C48.5063 9.86933 48.581 9.688 48.6876 9.496C48.8156 9.304 48.9223 9.18667 49.0076 9.144C49.0503 9.03733 49.1036 8.92 49.1676 8.792C49.253 8.664 49.3063 8.55733 49.3276 8.472C49.349 8.38667 49.3916 8.312 49.4556 8.248C49.5196 8.16267 49.5623 8.07733 49.5836 7.992C49.7543 7.8 49.9783 7.50133 50.2556 7.096C50.533 6.66933 50.8423 6.18933 51.1836 5.656C51.5463 5.12267 51.8983 4.57867 52.2396 4.024C52.6023 3.46933 52.933 2.94667 53.2316 2.456C53.5303 1.96533 53.7756 1.54933 53.9676 1.208C54.1596 0.866666 54.2663 0.653332 54.2876 0.567999C54.3516 0.247999 54.565 0.119999 54.9276 0.183998C55.0343 0.0986659 55.205 0.0773328 55.4396 0.119999C55.4396 0.119999 55.461 0.173332 55.5036 0.279999C55.5676 0.365332 55.6743 0.514666 55.8236 0.727999C55.973 0.919999 56.037 1.112 56.0156 1.304C56.0156 1.496 55.9836 1.70933 55.9196 1.944C55.877 2.22133 55.8023 2.46667 55.6956 2.68C55.589 2.872 55.397 3.14933 55.1196 3.512C54.8423 3.85333 54.4156 4.39733 53.8396 5.144C53.7116 5.336 53.573 5.528 53.4236 5.72C53.2956 5.89067 53.1676 6.05067 53.0396 6.2C52.933 6.328 52.8476 6.44533 52.7836 6.552C52.7196 6.63733 52.6876 6.70133 52.6876 6.744C52.6663 6.82933 52.5916 6.95733 52.4636 7.128C52.357 7.27733 52.2396 7.46933 52.1116 7.704C51.9836 7.85333 51.813 8.07733 51.5996 8.376C51.3863 8.67467 51.1623 8.984 50.9276 9.304C50.7143 9.624 50.5223 9.912 50.3516 10.168C50.181 10.4027 50.0956 10.5413 50.0956 10.584C50.0743 10.648 50.0423 10.7227 49.9996 10.808C49.9783 10.8933 49.9143 10.968 49.8076 11.032C49.7223 11.0107 49.6583 11.064 49.6156 11.192C49.5943 11.2987 49.5836 11.352 49.5836 11.352C49.5836 11.5227 49.3063 12.0453 48.7516 12.92C48.517 13.3467 48.165 13.9867 47.6956 14.84C47.2476 15.6933 46.7463 16.6427 46.1916 17.688C45.6583 18.712 45.1356 19.7253 44.6236 20.728C44.1116 21.7093 43.6743 22.5627 43.3116 23.288C42.9703 24.0133 42.7783 24.4933 42.7356 24.728C42.6503 25.2187 42.5756 25.5387 42.5116 25.688C42.4476 25.8587 42.3303 25.9653 42.1596 26.008Z" fill="#9F9110"/>
<path d="M56.5301 21.624C56.4021 21.6453 56.3061 21.6347 56.2421 21.592C56.1781 21.528 56.1141 21.4533 56.0501 21.368C55.8581 21.1547 55.6448 21.016 55.4101 20.952C55.1968 20.8667 55.1221 20.7493 55.1861 20.6C55.1861 20.6 55.2288 20.5253 55.3141 20.376C55.3995 20.2267 55.5168 20.088 55.6661 19.96C56.0288 19.7893 56.3915 19.64 56.7541 19.512C57.1381 19.3627 57.6181 19.16 58.1941 18.904C58.7915 18.648 59.5808 18.2747 60.5621 17.784C61.1595 17.464 61.6715 17.208 62.0981 17.016C62.5461 16.824 62.8875 16.632 63.1221 16.44C63.3781 16.2267 63.4955 15.9813 63.4741 15.704C63.3035 15.2773 62.7381 14.7653 61.7781 14.168C60.8181 13.5707 59.5275 12.9733 57.9061 12.376C57.3728 12.184 56.8928 11.9707 56.4661 11.736C56.0395 11.5013 55.7621 11.2773 55.6341 11.064C55.5061 10.8293 55.6021 10.6373 55.9221 10.488C56.0501 10.4667 56.2208 10.4453 56.4341 10.424C56.6475 10.3813 56.9248 10.3707 57.2661 10.392C57.6288 10.392 58.0448 10.4667 58.5141 10.616C59.3035 10.8933 59.8901 11.096 60.2741 11.224C60.6795 11.352 61.0848 11.5867 61.4901 11.928C62.2368 12.248 62.8448 12.6107 63.3141 13.016C63.7835 13.4213 64.2421 13.9227 64.6901 14.52L65.7781 15.992L65.9381 16.952C65.7675 16.9733 65.5115 17.08 65.1701 17.272C64.8288 17.4427 64.6368 17.5387 64.5941 17.56C64.3595 17.7307 64.0821 17.9013 63.7621 18.072C63.4421 18.2427 63.0155 18.456 62.4821 18.712C61.9701 18.968 61.2768 19.3093 60.4021 19.736C59.4635 20.0773 58.8235 20.3653 58.4821 20.6C58.1408 20.8347 57.8208 21.0267 57.5221 21.176C57.3728 21.2827 57.1915 21.3893 56.9781 21.496C56.7861 21.6027 56.6368 21.6453 56.5301 21.624Z" fill="#2EB755"/>
</svg>
