<svg width="106" height="106" viewBox="0 0 106 106" fill="none" xmlns="http://www.w3.org/2000/svg">
<path d="M0.5 0.5H105.5V105.5H0.5V0.5Z" fill="#F5DE19"/>
<path d="M71.0338 82.531C71.9284 84.3482 73.3183 85.8757 75.0434 86.9372C76.7684 87.9988 78.7584 88.5513 80.7838 88.531C84.8713 88.531 87.485 86.4873 87.485 83.656C87.485 80.281 84.8 79.0735 80.3 77.1048L77.8325 76.0473C70.7075 73.0135 65.9825 69.2148 65.9825 61.1823C65.9825 53.7835 71.6075 48.1473 80.4313 48.1473C83.2877 47.941 86.1416 48.5803 88.637 49.9854C91.1324 51.3905 93.159 53.4992 94.4638 56.0485L86.75 60.9798C86.2476 59.7157 85.3728 58.6343 84.2416 57.8788C83.1105 57.1234 81.7764 56.7296 80.4163 56.7498C79.8229 56.6904 79.2236 56.7552 78.6567 56.9402C78.0897 57.1252 77.5675 57.4263 77.1234 57.8242C76.6792 58.2222 76.3228 58.7083 76.0769 59.2516C75.831 59.7949 75.7009 60.3834 75.695 60.9798C75.695 63.9385 77.5288 65.1385 81.7625 66.9798L84.23 68.0373C92.615 71.6335 97.355 75.2973 97.355 83.536C97.355 92.4198 90.3763 97.2873 81.005 97.2873C77.3537 97.5199 73.713 96.6909 70.5223 94.9003C67.3317 93.1097 64.7274 90.4339 63.0238 87.196L71.0338 82.531ZM36.1775 83.386C37.7263 86.1348 39.1363 88.4598 42.5263 88.4598C45.7663 88.4598 47.8138 87.1923 47.8138 82.261V48.7098H57.68V82.3923C57.68 92.6073 51.68 97.2573 42.9463 97.2573C39.8591 97.426 36.7931 96.6566 34.1513 95.0503C31.5096 93.444 29.4157 91.0759 28.145 88.2573L36.1775 83.386Z" fill="#191919"/>
</svg>
