<svg width="131" height="131" viewBox="0 0 131 131" fill="none" xmlns="http://www.w3.org/2000/svg">
<path d="M36.8438 56.0842C40.6646 40.8008 50.2167 33.1592 65.5 33.1592C88.425 33.1592 91.2906 50.3529 102.753 53.2186C110.395 55.129 117.081 52.2633 122.812 44.6217C118.992 59.905 109.44 67.5467 94.1562 67.5467C71.2313 67.5467 68.3656 50.3529 56.9031 47.4873C49.2615 45.5769 42.575 48.4425 36.8438 56.0842ZM8.1875 90.4717C12.0083 75.1883 21.5604 67.5467 36.8438 67.5467C59.7687 67.5467 62.6344 84.7404 74.0969 87.6061C81.7385 89.5165 88.425 86.6508 94.1562 79.0092C90.3354 94.2925 80.7833 101.934 65.5 101.934C42.575 101.934 39.7094 84.7404 28.2469 81.8748C20.6052 79.9644 13.9187 82.83 8.1875 90.4717Z" fill="#44A8B3"/>
</svg>
