<svg width="50" height="50" viewBox="0 0 50 50" fill="none" xmlns="http://www.w3.org/2000/svg">
    <!--===============================================================================================================-->

    <!--  icon-contact-github  -->
    <g id="icon-contact-github">
        <circle cx="19.214" cy="18.8683" r="18.8683" fill="#1F2626"/>
        <g clip-path="url(#clip0_19_1708)">
            <path fill-rule="evenodd" clip-rule="evenodd"
                  d="M19.214 0C8.78925 0 0.345703 8.44354 0.345703 18.8682C0.345703 27.2175 5.74674 34.2695 13.2469 36.7695C14.1903 36.9346 14.5441 36.3686 14.5441 35.8733C14.5441 35.4251 14.5205 33.9393 14.5205 32.3591C9.77983 33.2317 8.55339 31.2034 8.17603 30.142C7.96376 29.5996 7.04393 27.925 6.24203 27.4769C5.58164 27.1231 4.63823 26.2505 6.21845 26.2269C7.70432 26.2033 8.76566 27.5948 9.11944 28.1609C10.8176 31.0147 13.5299 30.2128 14.6148 29.7175C14.7799 28.4911 15.2752 27.6656 15.8177 27.1939C11.6195 26.7222 7.23261 25.0948 7.23261 17.8777C7.23261 15.8257 7.96376 14.1276 9.16661 12.8068C8.97793 12.3351 8.31754 10.4011 9.35529 7.80674C9.35529 7.80674 10.9355 7.31145 14.5441 9.74073C16.0535 9.3162 17.6573 9.10393 19.2611 9.10393C20.8649 9.10393 22.4687 9.3162 23.9782 9.74073C27.5867 7.28786 29.167 7.80674 29.167 7.80674C30.2047 10.4011 29.5443 12.3351 29.3556 12.8068C30.5585 14.1276 31.2896 15.8022 31.2896 17.8777C31.2896 25.1184 26.8792 26.7222 22.681 27.1939C23.365 27.7835 23.9546 28.9156 23.9546 30.6845C23.9546 33.2081 23.931 35.2365 23.931 35.8733C23.931 36.3686 24.2848 36.9582 25.2282 36.7695C28.9738 35.5049 32.2286 33.0976 34.5344 29.8863C36.8403 26.6751 38.0811 22.8216 38.0822 18.8682C38.0822 8.44354 29.6387 0 19.214 0Z"
                  fill="white"/>
        </g>
        <defs>
            <clipPath id="clip0_19_1708">
                <rect width="37.7365" height="37.7365" fill="white" transform="translate(0.345703)"/>
            </clipPath>
        </defs>
    </g>

    <!--  icon-contact-gmail  -->
    <g id="icon-contact-gmail">
        <circle cx="19.2481" cy="18.8683" r="18.8683" fill="white"/>
        <g clip-path="url(#clip0_19_1699)">
            <path d="M31.0404 11.4975V26.2383C31.0404 27.0748 30.4029 27.7124 29.5663 27.7124H28.0922V14.3343L19.2477 20.6876L10.4032 14.3343V27.7124H8.92916C8.09262 27.7124 7.45508 27.0748 7.45508 26.2383V11.4975C7.45508 11.0788 7.6128 10.7103 7.8774 10.4494C8.01521 10.3115 8.17933 10.2027 8.36001 10.1296C8.54069 10.0564 8.73425 10.0203 8.92916 10.0234H9.42077L19.2477 17.1484L29.0747 10.0234H29.5663C29.985 10.0234 30.3535 10.1811 30.6181 10.4494C30.8827 10.7103 31.0404 11.0788 31.0404 11.4975Z"
                  fill="#1F2626"/>
        </g>
        <defs>
            <clipPath id="clip0_19_1699">
                <rect width="23.5853" height="23.5853" fill="white" transform="translate(7.45508 7.07568)"/>
            </clipPath>
        </defs>
    </g>

    <!--  icon-contact-telegram  -->
    <g id="icon-contact-telegram">
        <g clip-path="url(#clip0_19_1715)">
            <path d="M18.87 37.74C29.2916 37.74 37.74 29.2916 37.74 18.87C37.74 8.4484 29.2916 0 18.87 0C8.4484 0 0 8.4484 0 18.87C0 29.2916 8.4484 37.74 18.87 37.74Z"
                  fill="#F9F9FA"/>
            <path d="M7.85329 18.7063C7.85329 18.7063 17.2883 14.8342 20.5605 13.4707C21.8149 12.9254 26.0688 11.1801 26.0688 11.1801C26.0688 11.1801 28.0322 10.4166 27.8685 12.2709C27.814 13.0344 27.3777 15.7067 26.9414 18.5972C26.2869 22.6876 25.578 27.1596 25.578 27.1596C25.578 27.1596 25.4689 28.414 24.5418 28.6322C23.6146 28.8503 22.0875 27.8687 21.8149 27.6505C21.5967 27.4869 17.7246 25.0327 16.3066 23.8328C15.9248 23.5056 15.4885 22.8512 16.3611 22.0877C18.3245 20.2879 20.6696 18.0519 22.0875 16.6339C22.742 15.9794 23.3964 14.4524 20.6696 16.3066C16.7974 18.979 12.9798 21.4877 12.9798 21.4877C12.9798 21.4877 12.1072 22.0331 10.4711 21.5422C8.83491 21.0515 6.92609 20.397 6.92609 20.397C6.92609 20.397 5.61727 19.5789 7.85329 18.7063Z"
                  fill="#191919"/>
        </g>
        <defs>
            <clipPath id="clip0_19_1715">
                <rect width="37.74" height="37.74" fill="white"/>
            </clipPath>
        </defs>
    </g>

    <!--  icon-MyTechStack-Angular  -->
    <g id="icon-MyTechStack-Angular">
        <g clip-path="url(#clip0_19_1610)">
            <path d="M0.0424805 17.5728L51.6421 0.269043L104.631 17.2651L96.0515 81.5197L51.6421 104.668L7.92754 81.8274L0.0424805 17.5728Z"
                  fill="#E23237"/>
            <path d="M104.631 17.2651L51.6421 0.269043V104.668L96.0515 81.5583L104.631 17.2651Z" fill="#B52E31"/>
            <path d="M51.7234 12.4585L19.5708 79.7894L31.5819 79.5971L38.0372 64.408H66.8807L73.9488 79.7894L85.4288 79.9816L51.7234 12.4585ZM51.8054 34.0306L62.6726 55.4101H42.2449L51.8054 34.0306Z"
                  fill="#191919"/>
        </g>
        <defs>
            <clipPath id="clip0_19_1610">
                <rect width="105" height="105" fill="white"/>
            </clipPath>
        </defs>
    </g>

    <!--  icon-MyTechStack-CSS  -->
    <g id="icon-MyTechStack-CSS">
        <path d="M9.13246 94.1537L0.709961 0.4375H93.29L84.8562 94.1388L46.9437 104.562L9.13246 94.1537Z"
              fill="#1572B6"/>
        <path d="M47 96.5967L77.6375 88.1737L84.845 8.10156H47V96.5967Z" fill="#33A9DC"/>
        <path d="M47 42.054H62.3375L63.395 30.2842H47V18.7896H76.0625L75.785 21.8724L72.9387 53.5487H47V42.054Z"
              fill="#191919"/>
        <path d="M47.0711 71.9042L47.0186 71.9191L34.1112 68.4607L33.2862 59.2939H21.6499L23.2737 77.341L47.0149 83.8786L47.0711 83.8637V71.9042Z"
              fill="#191919"/>
        <path d="M61.351 53.0615L59.956 68.4534L47.0298 71.9119V83.8714L70.7898 77.3412L70.966 75.4001L72.9798 53.0615H61.351Z"
              fill="#191919"/>
        <path d="M47.0411 18.7896V30.2842H19.0436L18.8111 27.6997L18.2824 21.8724L18.0049 18.7896H47.0411ZM46.9999 42.054V53.5487H34.2536L34.0211 50.9642L33.4961 45.1369L33.2186 42.054H46.9999Z"
              fill="#191919"/>
    </g>

    <!--  icon-MyTechStack-Git  -->
    <g id="icon-MyTechStack-Git">
        <g clip-path="url(#clip0_19_1601)">
            <path d="M103.02 47.8221L57.1758 1.98062C54.5372 -0.659556 50.2552 -0.659556 47.6134 1.98062L38.0937 11.5003L50.1699 23.5766C52.9762 22.6283 56.1943 23.2645 58.4313 25.5014C60.6789 27.7528 61.3106 30.9984 60.3393 33.8137L71.9775 45.4523C74.7932 44.4822 78.0421 45.1098 80.291 47.3624C83.434 50.5042 83.434 55.5962 80.291 58.7401C77.1471 61.8844 72.055 61.8844 68.9095 58.7401C66.5454 56.3735 65.9613 52.9015 67.1582 49.989L56.3046 39.1354L56.3034 67.6975C57.0902 68.0865 57.8088 68.6004 58.4313 69.2192C61.5743 72.361 61.5743 77.4535 58.4313 80.5998C55.2874 83.7424 50.1929 83.7424 47.0535 80.5998C43.9105 77.4535 43.9105 72.3614 47.0535 69.2196C47.8067 68.466 48.7019 67.8692 49.6871 67.4637V38.6355C48.7004 38.2327 47.8048 37.6355 47.0535 36.8796C44.6722 34.5015 44.0996 31.0074 45.3198 28.0834L33.4154 16.1778L1.98105 47.6101C-0.660352 50.2527 -0.660352 54.5352 1.98105 57.1758L47.8259 103.018C50.4652 105.659 54.7464 105.659 57.3891 103.018L103.019 57.3886C105.66 54.7472 105.66 50.4623 103.019 47.8221"
                  fill="#DE4C36"/>
        </g>
        <defs>
            <clipPath id="clip0_19_1601">
                <rect width="105" height="105" fill="white"/>
            </clipPath>
        </defs>
    </g>

    <!--  icon-MyTechStack-GitHub  -->
    <g id="icon-MyTechStack-GitHub">
        <path fill-rule="evenodd" clip-rule="evenodd"
              d="M44 0C19.69 0 0 19.69 0 44C0 63.47 12.595 79.915 30.085 85.745C32.285 86.13 33.11 84.81 33.11 83.655C33.11 82.61 33.055 79.145 33.055 75.46C22 77.495 19.14 72.765 18.26 70.29C17.765 69.025 15.62 65.12 13.75 64.075C12.21 63.25 10.01 61.215 13.695 61.16C17.16 61.105 19.635 64.35 20.46 65.67C24.42 72.325 30.745 70.455 33.275 69.3C33.66 66.44 34.815 64.515 36.08 63.415C26.29 62.315 16.06 58.52 16.06 41.69C16.06 36.905 17.765 32.945 20.57 29.865C20.13 28.765 18.59 24.255 21.01 18.205C21.01 18.205 24.695 17.05 33.11 22.715C36.63 21.725 40.37 21.23 44.11 21.23C47.85 21.23 51.59 21.725 55.11 22.715C63.525 16.995 67.21 18.205 67.21 18.205C69.63 24.255 68.09 28.765 67.65 29.865C70.455 32.945 72.16 36.85 72.16 41.69C72.16 58.575 61.875 62.315 52.085 63.415C53.68 64.79 55.055 67.43 55.055 71.555C55.055 77.44 55 82.17 55 83.655C55 84.81 55.825 86.185 58.025 85.745C66.7597 82.796 74.3497 77.1822 79.7268 69.6937C85.1039 62.2052 87.9974 53.219 88 44C88 19.69 68.31 0 44 0Z"
              fill="#FFFEFE"/>
    </g>

    <!--  icon-MyTechStack-GraphQL  -->
    <g id="icon-MyTechStack-GraphQL">
        <path d="M10.7425 89.959L6.53076 87.5368L53.4497 6.58887L57.6614 9.01106L10.7425 89.959Z" fill="#E535AB"/>
        <path d="M5.56641 81.0698H99.4043V85.9142H5.56641V81.0698Z" fill="#E535AB"/>
        <path d="M54.3599 110.786L7.42334 83.7917L9.85498 79.5964L56.7915 106.591L54.3599 110.786ZM95.1335 40.4319L48.197 13.4375L50.6286 9.24219L97.5651 36.2365L95.1335 40.4319Z"
              fill="#E535AB"/>
        <path d="M9.86768 40.413L7.43604 36.2179L54.3726 9.22363L56.8042 13.4187L9.86768 40.413Z" fill="#E535AB"/>
        <path d="M94.268 89.9599L47.349 9.01204L51.5607 6.58984L98.4797 87.5378L94.268 89.9599ZM9.28711 33.0055H14.1504V86.9941H9.28711V33.0055Z"
              fill="#E535AB"/>
        <path d="M90.8496 33.0054H95.7129V86.994H90.8496V33.0054Z" fill="#E535AB"/>
        <path d="M53.5317 108.735L51.4077 105.071L92.23 81.5928L94.354 85.2573L53.5317 108.735Z" fill="#E535AB"/>
        <path d="M102.158 88.5699C99.3457 93.4435 93.0762 95.1069 88.1836 92.3054C83.291 89.5038 81.6211 83.2586 84.4336 78.3851C87.2461 73.5115 93.5156 71.8481 98.4082 74.6496C103.33 77.4804 105 83.6964 102.158 88.5699ZM20.5371 41.6144C17.7246 46.488 11.4551 48.1514 6.56252 45.3499C1.66994 42.5483 1.9541e-05 36.3031 2.81252 31.4296C5.62502 26.556 11.8946 24.8926 16.7871 27.6941C21.6797 30.5249 23.3496 36.7409 20.5371 41.6144ZM2.84182 88.5699C0.0293165 83.6964 1.69924 77.4804 6.59182 74.6496C11.4844 71.8481 17.7246 73.5115 20.5664 78.3851C23.3789 83.2586 21.709 89.4746 16.8164 92.3054C11.8946 95.1069 5.65432 93.4435 2.84182 88.5699ZM84.4629 41.6144C81.6504 36.7409 83.3203 30.5249 88.2129 27.6941C93.1055 24.8926 99.3457 26.556 102.188 31.4296C105 36.3031 103.33 42.5191 98.4375 45.3499C93.5449 48.1514 87.2754 46.488 84.4629 41.6144ZM52.5 117.14C46.8457 117.14 42.2754 112.588 42.2754 106.955C42.2754 101.323 46.8457 96.7704 52.5 96.7704C58.1543 96.7704 62.7246 101.323 62.7246 106.955C62.7246 112.558 58.1543 117.14 52.5 117.14ZM52.5 23.2291C46.8457 23.2291 42.2754 18.6766 42.2754 13.0443C42.2754 7.41193 46.8457 2.85938 52.5 2.85938C58.1543 2.85938 62.7246 7.41193 62.7246 13.0443C62.7246 18.6766 58.1543 23.2291 52.5 23.2291Z"
              fill="#E535AB"/>
    </g>

    <!--  icon-MyTechStack-HTML  -->
    <g id="icon-MyTechStack-HTML">
        <path d="M8.42625 94.5038L0 0H92.5875L84.15 94.4888L46.2375 105L8.42625 94.5038Z" fill="#E44F26"/>
        <path d="M46.2939 96.9673L76.9314 88.4735L84.1389 7.72852H46.2939V96.9673Z" fill="#F1662A"/>
        <path d="M46.0625 42.46H30.725L29.6675 30.5912H46.0625V19H17L17.2775 22.1125L20.1238 54.0512H46.0625V42.46V42.46ZM46.0625 72.5612L46.01 72.5762L33.1025 69.0925L32.2775 59.8488H20.6412L22.265 78.0437L46.01 84.6362L46.0625 84.6213V72.5612Z"
              fill="#191919"/>
        <path d="M46 42.46V54.0513H60.2725L58.93 69.085L46 72.5725V84.6325L69.7637 78.0438L69.9362 76.0863L72.6587 45.5725L72.9437 42.46H46ZM46 19V30.5912H73.9975L74.23 27.9888L74.7588 22.1125L75.0362 19H46Z"
              fill="#191919"/>
    </g>

    <!--  icon-MyTechStack-JavaScript  -->
    <g id="icon-MyTechStack-JavaScript">
        <path d="M0.5 0.5H105.5V105.5H0.5V0.5Z" fill="#F5DE19"/>
        <path d="M71.0338 82.531C71.9284 84.3482 73.3183 85.8757 75.0434 86.9372C76.7684 87.9988 78.7584 88.5513 80.7838 88.531C84.8713 88.531 87.485 86.4873 87.485 83.656C87.485 80.281 84.8 79.0735 80.3 77.1048L77.8325 76.0473C70.7075 73.0135 65.9825 69.2148 65.9825 61.1823C65.9825 53.7835 71.6075 48.1473 80.4313 48.1473C83.2877 47.941 86.1416 48.5803 88.637 49.9854C91.1324 51.3905 93.159 53.4992 94.4638 56.0485L86.75 60.9798C86.2476 59.7157 85.3728 58.6343 84.2416 57.8788C83.1105 57.1234 81.7764 56.7296 80.4163 56.7498C79.8229 56.6904 79.2236 56.7552 78.6567 56.9402C78.0897 57.1252 77.5675 57.4263 77.1234 57.8242C76.6792 58.2222 76.3228 58.7083 76.0769 59.2516C75.831 59.7949 75.7009 60.3834 75.695 60.9798C75.695 63.9385 77.5288 65.1385 81.7625 66.9798L84.23 68.0373C92.615 71.6335 97.355 75.2973 97.355 83.536C97.355 92.4198 90.3763 97.2873 81.005 97.2873C77.3537 97.5199 73.713 96.6909 70.5223 94.9003C67.3317 93.1097 64.7274 90.4339 63.0238 87.196L71.0338 82.531ZM36.1775 83.386C37.7263 86.1348 39.1363 88.4598 42.5263 88.4598C45.7663 88.4598 47.8138 87.1923 47.8138 82.261V48.7098H57.68V82.3923C57.68 92.6073 51.68 97.2573 42.9463 97.2573C39.8591 97.426 36.7931 96.6566 34.1513 95.0503C31.5096 93.444 29.4157 91.0759 28.145 88.2573L36.1775 83.386Z"
              fill="#191919"/>
    </g>

    <!--  icon-MyTechStack-NextJS  -->
    <g id="icon-MyTechStack-NextJS">
        <g clip-path="url(#clip0_19_1672)">
            <path d="M49.065 0.0819406C48.8395 0.102446 48.1218 0.174217 47.4758 0.225481C32.5784 1.56861 18.6242 9.60689 9.78616 21.9616C4.86476 28.8311 1.71712 36.6233 0.527786 44.8769C0.107417 47.7579 0.0561523 48.6089 0.0561523 52.5153C0.0561523 56.4216 0.107417 57.2726 0.527786 60.1537C3.37809 79.8495 17.3938 96.3977 36.4027 102.529C39.8067 103.626 43.3952 104.374 47.4758 104.826C49.065 105 55.9345 105 57.5237 104.826C64.5674 104.046 70.5346 102.303 76.4198 99.2993C77.322 98.8379 77.4963 98.7149 77.3733 98.6124C77.2913 98.5508 73.4464 93.3936 68.8326 87.1599L60.4458 75.8304L49.9365 60.2767C44.1539 51.7258 39.3965 44.7333 39.3555 44.7333C39.3145 44.7231 39.2735 51.6335 39.253 60.0717C39.2222 74.8461 39.212 75.4408 39.0274 75.7894C38.7609 76.2918 38.5558 76.4968 38.1252 76.7224C37.7971 76.8865 37.51 76.9172 35.9618 76.9172H34.1881L33.7164 76.6199C33.4089 76.4251 33.1833 76.1687 33.0295 75.8714L32.8142 75.41L32.8347 54.853L32.8654 34.2856L33.1833 33.8858C33.3473 33.6705 33.6959 33.3936 33.942 33.2603C34.3624 33.0553 34.5264 33.0348 36.3002 33.0348C38.3918 33.0348 38.7404 33.1168 39.2838 33.7115C39.4376 33.8755 45.1279 42.4469 51.9359 52.7716C58.7438 63.0963 68.0534 77.194 72.6262 84.1148L80.9311 96.6951L81.3514 96.4182C85.0732 93.9986 89.0104 90.5536 92.1272 86.9651C98.7609 79.3472 103.036 70.058 104.472 60.1537C104.892 57.2726 104.943 56.4216 104.943 52.5153C104.943 48.6089 104.892 47.7579 104.472 44.8769C101.621 25.181 87.6057 8.63286 68.5968 2.50163C65.2441 1.41482 61.6761 0.666356 57.6775 0.215228C56.6932 0.112699 49.916 -8.26269e-05 49.065 0.0819406ZM70.5346 31.8044C71.0268 32.0505 71.4266 32.5221 71.5702 33.0143C71.6522 33.2808 71.6727 38.9815 71.6522 51.8284L71.6214 70.2631L68.3713 65.2802L65.1108 60.2973V46.8967C65.1108 38.233 65.1518 33.3629 65.2134 33.1271C65.3774 32.5529 65.7363 32.1018 66.2284 31.8352C66.6488 31.6199 66.8026 31.5994 68.4123 31.5994C69.9297 31.5994 70.1963 31.6199 70.5346 31.8044Z"
                  fill="#FFFEFE"/>
            <path d="M80.4186 96.9209C80.0598 97.1464 79.947 97.3002 80.2648 97.1259C80.4904 96.9926 80.8595 96.7158 80.798 96.7056C80.7672 96.7056 80.5929 96.8081 80.4186 96.9209ZM79.7112 97.3823C79.5266 97.5258 79.5266 97.5361 79.7522 97.4233C79.8752 97.3618 79.9778 97.29 79.9778 97.2695C79.9778 97.1875 79.9265 97.208 79.7112 97.3823ZM79.1985 97.6898C79.014 97.8334 79.014 97.8436 79.2395 97.7309C79.3626 97.6693 79.4651 97.5976 79.4651 97.5771C79.4651 97.495 79.4138 97.5155 79.1985 97.6898ZM78.6859 97.9974C78.5013 98.141 78.5013 98.1512 78.7269 98.0384C78.8499 97.9769 78.9525 97.9052 78.9525 97.8847C78.9525 97.8026 78.9012 97.8231 78.6859 97.9974ZM77.9067 98.4075C77.5171 98.6126 77.5376 98.6946 77.9272 98.4998C78.1015 98.4075 78.2348 98.3153 78.2348 98.2948C78.2348 98.223 78.2245 98.2332 77.9067 98.4075Z"
                  fill="black"/>
        </g>
        <defs>
            <clipPath id="clip0_19_1672">
                <rect width="105" height="105" fill="white"/>
            </clipPath>
        </defs>
    </g>

    <!--  icon-MyTechStack-NodeJS  -->
    <g id="icon-MyTechStack-NodeJS">
        <g clip-path="url(#clip0_19_1668)">
            <path d="M47.7746 1.33312C50.6295 -0.150656 54.348 -0.157358 57.2004 1.33312C71.5507 8.69578 85.9055 16.0469 100.253 23.414C102.952 24.7943 104.757 27.5213 104.73 30.3448V74.6414C104.75 77.5817 102.766 80.3739 99.9191 81.7229C85.616 89.045 71.3202 96.376 57.0196 103.698C54.1056 105.211 50.3125 105.094 47.4896 103.458C43.2016 101.2 38.9061 98.9545 34.6176 96.6996C33.7413 96.2252 32.7535 95.8476 32.1347 95.0762C32.6817 94.4067 33.6597 94.3233 34.4544 94.031C36.2444 93.5142 37.8883 92.6846 39.5327 91.8796C39.9485 91.6212 40.4562 91.7203 40.8547 91.9515C44.5216 93.8605 48.156 95.8249 51.8351 97.7157C52.62 98.1271 53.4147 97.5809 54.0855 97.2413C68.1213 90.0384 82.1743 82.8626 96.2076 75.6575C96.7275 75.4304 97.015 74.9292 96.9728 74.412C96.9826 59.7995 96.9752 45.1844 96.9777 30.5719C97.0372 29.9851 96.6632 29.4456 96.0788 29.2054C81.8253 21.9168 67.5792 14.6171 53.3282 7.32668C53.0812 7.17255 52.7888 7.08986 52.4891 7.08946C52.1895 7.08906 51.8967 7.17098 51.6493 7.32445C37.3983 14.6171 23.1546 21.9235 8.9036 29.2117C8.3213 29.4523 7.93051 29.9829 7.99981 30.5719C8.00227 45.1844 7.99981 59.7995 7.99981 74.4142C7.9751 74.6666 8.03614 74.9197 8.17471 75.1396C8.31327 75.3595 8.52272 75.5356 8.77484 75.6441C12.5778 77.6022 16.3857 79.5466 20.1911 81.498C22.3349 82.5458 24.9671 83.1683 27.3291 82.3656C29.4135 81.6868 30.8745 79.7555 30.8348 77.7459C30.8545 63.2187 30.8249 48.6892 30.8495 34.1642C30.7975 33.5193 31.4712 32.9865 32.1617 33.0472C33.989 33.036 35.8187 33.0249 37.646 33.0517C38.4087 33.036 38.9336 33.7305 38.8393 34.3802C38.8319 48.9994 38.859 63.619 38.827 78.2382C38.8319 82.1343 37.069 86.3738 33.1 88.2802C28.2104 90.5801 22.1668 90.0924 17.3362 87.887C13.1543 85.9918 9.16358 83.7551 5.05594 81.7248C2.20147 80.3832 0.227818 77.5799 0.247912 74.6417V30.3448C0.217977 27.4629 2.09485 24.6863 4.87756 23.3262C19.1782 15.9981 33.4764 8.6645 47.7746 1.33312Z"
                  fill="#8CC84B"/>
            <path d="M60.2503 32.0179C66.4874 31.6534 73.1645 31.802 78.7771 34.5919C83.1225 36.7299 85.5317 41.217 85.6084 45.6005C85.487 46.1918 84.8063 46.518 84.1846 46.4774C82.375 46.4752 80.565 46.4997 78.7553 46.4662C77.9877 46.493 77.5415 45.8504 77.4452 45.2341C76.9252 43.1368 75.6655 41.0595 73.4913 40.0478C70.1538 38.5305 66.284 38.6069 62.6446 38.6385C59.9878 38.7666 57.1309 38.9755 54.88 40.3941C53.152 41.4687 52.6271 43.6379 53.2439 45.3849C53.8253 46.6394 55.4201 47.0441 56.7249 47.4172C64.2414 49.2022 72.2066 49.0246 79.5796 51.3737C82.6321 52.3313 85.6182 54.193 86.6631 57.0951C88.0298 60.9845 87.4307 65.6336 84.3831 68.756C81.9116 71.3255 78.312 72.724 74.7219 73.4836C69.9459 74.4506 64.9894 74.4752 60.1391 74.0459C55.5784 73.5737 50.8323 72.4857 47.3114 69.6642C44.3007 67.2905 42.8302 63.592 42.9762 60.0224C43.0111 59.4196 43.6721 58.9992 44.3081 59.0487C46.1304 59.0353 47.9528 59.0309 49.7751 59.051C50.503 59.0037 51.0426 59.5748 51.0799 60.1978C51.4162 62.1961 52.2433 64.2935 54.1624 65.4783C57.8661 67.6479 62.5134 67.4994 66.7543 67.5601C70.2678 67.4186 74.2118 67.3757 77.079 65.2672C78.5917 64.0645 79.0399 62.0524 78.6311 60.3214C78.1882 58.8599 76.5045 58.1789 75.0586 57.7336C67.6384 55.6023 59.5843 56.3757 52.2359 53.9655C49.2527 53.0082 46.3679 51.1983 45.2217 48.4154C43.6225 44.4768 44.3553 39.6051 47.7223 36.588C51.0053 33.587 55.7444 32.4316 60.2503 32.0179Z"
                  fill="#8CC84B"/>
        </g>
        <defs>
            <clipPath id="clip0_19_1668">
                <rect width="105" height="105" fill="white"/>
            </clipPath>
        </defs>
    </g>

    <!--  icon-MyTechStack-React  -->
    <g id="icon-MyTechStack-React">
        <g clip-path="url(#clip0_19_1603)">
            <path d="M92.9057 32.7027C91.7032 32.2886 90.4905 31.905 89.2688 31.5522C89.474 30.7106 89.663 29.8791 89.8307 29.0622C92.5839 15.6483 90.784 4.84172 84.6362 1.28369C78.7417 -2.12728 69.1017 1.42943 59.366 9.93336C58.4065 10.773 57.4683 11.6368 56.5523 12.5239C55.9391 11.934 55.315 11.3555 54.6804 10.7888C44.4768 1.6961 34.2494 -2.13614 28.1082 1.43209C22.219 4.85368 20.4752 15.0126 22.9539 27.7253C23.2005 28.9844 23.479 30.2369 23.789 31.4818C22.3413 31.8947 20.9443 32.3341 19.6074 32.8019C7.64455 36.9881 0.00488281 43.5482 0.00488281 50.3528C0.00488281 57.3808 8.20641 64.4299 20.6663 68.7043C21.6764 69.0494 22.695 69.3692 23.721 69.6633C23.3878 71.0041 23.0919 72.354 22.8338 73.7113C20.4708 86.2034 22.3161 96.1222 28.1894 99.5221C34.2556 103.033 44.4371 99.4247 54.3507 90.7267C55.1546 90.0196 55.9408 89.2924 56.7085 88.5459C57.7005 89.5065 58.719 90.4392 59.7628 91.3429C69.3661 99.6364 78.8503 102.985 84.7178 99.5762C90.7783 96.0549 92.7481 85.3994 90.1908 72.4355C89.9894 71.4199 89.7635 70.4093 89.5133 69.4046C90.2283 69.192 90.9301 68.9732 91.6143 68.7455C104.568 64.4384 112.996 57.4747 112.996 50.3528C112.996 43.5234 105.109 36.919 92.9057 32.7027ZM90.0964 64.1473C89.4785 64.3524 88.8447 64.5504 88.1985 64.7431C86.7684 60.1995 84.8388 55.3683 82.477 50.3763C84.7306 45.5035 86.5862 40.7339 87.976 36.2199C89.132 36.5557 90.2535 36.9097 91.3349 37.2831C101.791 40.8961 108.169 46.2371 108.169 50.3528C108.169 54.7366 101.281 60.4276 90.0964 64.1473ZM85.4558 73.3764C86.5866 79.1086 86.7477 84.2915 85.9987 88.3435C85.3261 91.9843 83.9728 94.4114 82.2991 95.3838C78.7386 97.4525 71.1237 94.7636 62.9111 87.6706C61.9402 86.8304 60.9928 85.9633 60.07 85.0703C63.254 81.5756 66.4359 77.513 69.5414 73.0008C75.0037 72.5144 80.1642 71.7188 84.8441 70.633C85.0695 71.5425 85.2735 72.4572 85.4558 73.3764ZM38.5259 95.0263C35.047 96.2591 32.2761 96.2946 30.6011 95.3253C27.037 93.2623 25.5553 85.298 27.5764 74.615C27.8166 73.3526 28.0917 72.0972 28.4013 70.8501C33.0295 71.8778 38.1525 72.6167 43.6277 73.0623C46.7543 77.4776 50.028 81.5357 53.3272 85.0893C52.6261 85.7702 51.9083 86.4337 51.1746 87.0792C46.7905 90.9252 42.3976 93.6539 38.5259 95.0263ZM22.2278 64.1203C16.7182 62.2301 12.1681 59.7738 9.04943 57.0933C6.24673 54.6848 4.83214 52.2931 4.83214 50.3528C4.83214 46.2234 10.9659 40.9563 21.1964 37.3766C22.4379 36.9424 23.7373 36.5327 25.0857 36.1482C26.4999 40.764 28.3545 45.5903 30.5927 50.4707C28.3254 55.4232 26.4443 60.3266 25.0164 64.997C24.0799 64.7277 23.1501 64.4354 22.2278 64.1203ZM27.6911 26.7946C25.5677 15.903 26.9779 7.687 30.5269 5.62491C34.3068 3.42861 42.6655 6.56005 51.4756 14.4115C52.0501 14.9246 52.6153 15.4482 53.171 15.9818C49.888 19.5199 46.6444 23.548 43.5456 27.9371C38.2315 28.4314 33.1447 29.2252 28.4679 30.2888C28.1798 29.131 27.9208 27.966 27.6911 26.795V26.7946ZM76.4303 38.8738C75.3256 36.9588 74.18 35.0679 72.9942 33.2023C76.5993 33.6599 80.0535 34.2673 83.2971 35.0097C82.3234 38.1425 81.1096 41.4175 79.6809 44.7753C78.6366 42.7866 77.5528 40.8191 76.4303 38.8738ZM56.5545 19.4442C58.7808 21.8651 61.0106 24.5677 63.2037 27.5003C58.7547 27.2894 54.2983 27.2885 49.8492 27.4976C52.0446 24.5921 54.2934 21.893 56.5545 19.4442ZM36.5512 38.9071C35.4426 40.8366 34.3791 42.7919 33.3614 44.7713C31.9561 41.4254 30.7533 38.1354 29.7713 34.9583C32.9951 34.2345 36.4329 33.6427 40.015 33.1935C38.816 35.0704 37.6611 36.9753 36.5512 38.9066V38.9071ZM40.1179 67.8569C36.417 67.4422 32.9275 66.881 29.7046 66.1766C30.7021 62.9429 31.9314 59.5828 33.3671 56.1652C34.3888 58.1461 35.4568 60.1025 36.5702 62.033C37.7151 64.0175 38.9006 65.9613 40.1179 67.8569ZM56.6878 81.6026C54.3997 79.1255 52.1178 76.3847 49.8894 73.4371C52.053 73.5222 54.2585 73.5656 56.5002 73.5656C58.8033 73.5656 61.0799 73.5137 63.3207 73.4136C61.1205 76.4144 58.899 79.1591 56.6878 81.6026ZM79.7264 55.9907C81.2368 59.4459 82.5097 62.7883 83.5204 65.9667C80.2446 66.7171 76.7074 67.3213 72.9805 67.77C74.1748 65.8699 75.3312 63.9461 76.4492 61.9998C77.5859 60.0214 78.6786 58.0179 79.7264 55.9907ZM72.2681 59.5793C70.5566 62.5634 68.7488 65.4908 66.8477 68.357C63.4039 68.6018 59.9526 68.7234 56.5002 68.7216C52.9838 68.7216 49.5636 68.6117 46.2701 68.3973C44.3194 65.5378 42.4771 62.6052 40.7473 59.6059H40.7477C39.026 56.6224 37.4178 53.5744 35.9266 50.4685C37.414 47.3618 39.0173 44.3124 40.7332 41.3266L40.7327 41.3271C42.4479 38.3406 44.2754 35.4206 46.2114 32.5733C49.5716 32.3181 53.0174 32.1853 56.4998 32.1853H56.5002C59.9985 32.1853 63.4487 32.3195 66.808 32.5764C68.7244 35.4194 70.5403 38.3294 72.2522 41.3009C73.9738 44.2801 75.5983 47.3146 77.1232 50.3998C75.6139 53.5165 73.9946 56.5783 72.2681 59.5793ZM82.2254 5.4805C86.0089 7.67061 87.4804 16.5023 85.1032 28.0841C84.9513 28.823 84.781 29.5756 84.5956 30.3389C79.9074 29.2527 74.817 28.4452 69.4875 27.9433C66.3829 23.5059 63.1658 19.4717 59.9363 15.9792C60.7827 15.1603 61.6492 14.3627 62.5351 13.5871C70.8769 6.30135 78.6733 3.42462 82.2254 5.4805ZM56.5002 40.2263C62.0725 40.2263 66.5899 44.7602 66.5899 50.3528C66.5899 55.9455 62.0725 60.4794 56.5002 60.4794C50.9279 60.4794 46.4105 55.9455 46.4105 50.3528C46.4105 44.7602 50.9279 40.2263 56.5002 40.2263Z"
                  fill="#00D8FF"/>
        </g>
        <defs>
            <clipPath id="clip0_19_1603">
                <rect width="113" height="101" fill="white"/>
            </clipPath>
        </defs>
    </g>

    <!--  icon-MyTechStack-Redux  -->
    <g id="icon-MyTechStack-Redux">
        <path d="M72.6971 69.5627C76.5688 69.1619 79.5061 65.8242 79.3725 61.8184C79.2393 57.8131 75.9012 54.6086 71.8959 54.6086H71.6291C67.4897 54.7422 64.2856 58.2135 64.4193 62.3525C64.5529 64.3553 65.3537 66.091 66.5553 67.2926C62.016 76.2385 55.0734 82.7807 44.6594 88.2549C37.5832 91.9934 30.2402 93.3287 22.8971 92.3943C16.8889 91.593 12.216 88.923 9.27827 84.5164C5.00614 77.9742 4.60573 70.8975 8.21065 63.8213C10.7475 58.7475 14.7525 55.009 17.2893 53.1398C16.7553 51.4041 15.9541 48.4668 15.5537 46.3307C-3.80574 60.35 -1.80287 79.3094 4.07172 88.2549C8.47745 94.9311 17.4229 99.0701 27.3029 99.0701C29.9729 99.0701 32.643 98.8029 35.3135 98.1357C52.4033 94.7975 65.3541 84.65 72.6971 69.5627ZM96.1955 53.0066C86.0483 41.1234 71.0951 34.5811 54.0053 34.5811H51.8693C50.6676 32.1779 48.1307 30.5754 45.327 30.5754H45.0598C40.9213 30.709 37.7172 34.1803 37.8504 38.3197C37.984 42.325 41.3217 45.5295 45.327 45.5295H45.5938C48.5311 45.3959 51.068 43.5266 52.1361 40.9898H54.5393C64.6865 40.9898 74.2992 43.927 82.9779 49.6684C89.6533 54.0746 94.4598 59.816 97.1299 66.7586C99.3996 72.3664 99.266 77.8406 96.8627 82.5139C93.1246 89.5902 86.8496 93.4623 78.5717 93.4623C73.2311 93.4623 68.1578 91.8598 65.4873 90.6582C64.0188 91.9934 61.3484 94.1295 59.4791 95.4652C65.2205 98.1352 71.0951 99.6041 76.7025 99.6041C89.5197 99.6041 98.9992 92.5275 102.604 85.4512C106.476 77.707 106.209 64.3553 96.1955 53.0066ZM28.3709 71.832C28.5045 75.8377 31.8422 79.0418 35.8475 79.0418H36.1147C40.2537 78.9086 43.4578 75.4369 43.3242 71.2979C43.191 67.2922 39.8529 64.0881 35.8475 64.0881H35.5807C35.3135 64.0881 34.9127 64.0881 34.6463 64.2213C29.1721 55.1422 26.9025 45.2623 27.7037 34.5807C28.2373 26.5697 30.9078 19.6266 35.5807 13.8852C39.4525 8.94508 46.9291 6.5418 52.0029 6.40861C66.1549 6.14139 72.1627 23.7656 72.5635 30.8422C74.2992 31.2426 77.2365 32.1775 79.2393 32.8451C77.6369 11.2156 64.2856 0 51.4688 0C39.4524 0 28.3709 8.67869 23.9647 21.4963C17.8234 38.5865 21.8287 55.009 29.3053 67.9602C28.6381 68.8947 28.2373 70.3635 28.3709 71.8324V71.832Z"
              fill="#764ABC"/>
    </g>

    <!--  icon-MyTechStack-SASS  -->
    <g id="icon-MyTechStack-SASS">
        <path d="M100.463 49.8709C96.3928 49.8917 92.8551 50.8637 89.8932 52.3005C88.806 50.1663 87.7193 48.265 87.5278 46.8703C87.3144 45.2436 87.0589 44.2503 87.3143 42.3064C87.5703 40.3625 88.721 37.5944 88.6995 37.3832C88.6785 37.1721 88.4436 36.1788 86.0996 36.158C83.7556 36.1367 81.7311 36.6016 81.4966 37.2142C81.2622 37.8268 80.8148 39.2215 80.5163 40.658C80.1114 42.7713 75.8284 50.314 73.3779 54.2653C72.5891 52.7233 71.9072 51.3707 71.7578 50.2932C71.5448 48.6665 71.2889 47.6732 71.5448 45.7293C71.8007 43.7854 72.9515 41.0177 72.93 40.8061C72.9085 40.595 72.6741 39.6017 70.3301 39.5809C67.9856 39.5596 65.9611 40.0245 65.7271 40.6371C65.4927 41.2502 65.2367 42.6866 64.7468 44.0813C64.2565 45.476 58.5667 58.0693 57.075 61.3227C56.4722 62.6396 55.8399 63.9429 55.1784 65.2318C55.1784 65.2318 55.157 65.2953 55.093 65.4008C54.8852 65.805 54.6722 66.2065 54.4541 66.6052V66.6261C54.1342 67.197 53.7932 67.7249 53.6228 67.7249C53.4948 67.7249 53.2604 66.2038 53.6653 64.133C54.5176 59.7594 56.5421 52.9558 56.5211 52.7233C56.5211 52.5964 56.9046 51.4133 55.1999 50.8003C53.5373 50.1876 52.9409 51.2017 52.7915 51.2017C52.6425 51.2017 52.5356 51.5611 52.5356 51.5611C52.5356 51.5611 54.3901 43.9123 48.9983 43.9123C45.6315 43.9123 40.9856 47.5677 38.6841 50.8637C36.0678 52.2754 33.4537 53.6911 30.8418 55.1108C29.5851 55.8082 28.2849 56.5055 27.0701 57.1603C26.9847 57.076 26.8997 56.97 26.8142 56.8857C20.2932 49.9765 8.2318 45.0954 8.74319 35.8199C8.93513 32.4392 10.1069 23.5647 31.9076 12.789C49.8506 4.02008 64.129 6.44974 66.6009 11.8378C70.1382 19.5292 58.9506 33.8126 40.4102 35.8829C33.3353 36.665 29.6271 33.9603 28.6898 32.9462C27.7095 31.8895 27.5601 31.8261 27.1976 32.0377C26.6012 32.3549 26.9847 33.3055 27.1976 33.8547C27.752 35.2911 30.032 37.8268 33.8892 39.0738C37.2989 40.1722 45.5886 40.7853 55.6258 36.9396C66.8564 32.629 75.6364 20.6489 73.058 10.6126C70.4791 0.428159 53.4308 -2.93131 37.2989 2.75224C27.7095 6.13346 17.3098 11.4577 9.82995 18.3882C0.943427 26.6283 -0.463244 33.7913 0.112129 36.7919C2.17964 47.4408 16.9904 54.3713 22.9146 59.5057C22.6161 59.6747 22.3387 59.8229 22.1047 59.9497C19.1424 61.4075 7.84791 67.26 5.03502 73.4511C1.83871 80.4659 5.54687 85.4951 7.99735 86.1707C15.6052 88.2628 23.426 84.5019 27.624 78.2895C31.8221 72.0776 31.3107 64.0061 29.3716 60.3086C29.3502 60.2665 29.3291 60.2239 29.2862 60.1817C30.0535 59.7381 30.8418 59.2732 31.6091 58.8296C33.0194 58.003 34.4476 57.2068 35.8927 56.4417C35.1679 58.4069 34.635 60.7522 34.3795 64.133C34.0596 68.1055 35.7003 73.2607 37.8528 75.2889C38.8121 76.1771 39.9413 76.1979 40.6661 76.1979C43.1806 76.1979 44.3103 74.1271 45.5676 71.6762C47.1017 68.676 48.4869 65.1897 48.4869 65.1897C48.4869 65.1897 46.7608 74.6133 51.4492 74.6133C53.1539 74.6133 54.88 72.4157 55.6473 71.296V71.3168C55.6473 71.3168 55.6898 71.2534 55.7753 71.1057C55.9458 70.8311 56.0522 70.6616 56.0522 70.6616V70.6199C56.7341 69.4364 58.2687 66.753 60.5487 62.2947C63.4896 56.5477 66.324 49.3638 66.324 49.3638C66.324 49.3638 66.5799 51.1174 67.4532 54.0333C67.9651 55.7448 69.0299 57.6252 69.8827 59.4422C69.2008 60.3934 68.7744 60.9212 68.7744 60.9212L68.7959 60.9425C68.2416 61.6607 67.6452 62.4424 66.9843 63.2036C64.6614 65.95 61.8914 69.0988 61.5075 70.0069C61.0597 71.0844 61.1666 71.8665 62.0194 72.5004C62.6373 72.9653 63.7451 73.0283 64.8748 72.9653C66.9633 72.8171 68.4335 72.3101 69.1579 71.9934C70.2876 71.5919 71.6088 70.9788 72.8446 70.0703C75.125 68.401 76.5098 66.0135 76.3823 62.8656C76.3183 61.1329 75.7429 59.4001 75.0396 57.7729C75.253 57.4775 75.4445 57.1816 75.6579 56.8857C79.2591 51.6666 82.051 45.9405 82.051 45.9405C82.051 45.9405 82.3069 47.6941 83.1803 50.6104C83.6066 52.0894 84.4804 53.6953 85.2473 55.2585C81.859 57.9845 79.7705 61.1537 79.0247 63.2245C77.6824 67.0702 78.7262 68.8024 80.7083 69.2039C81.6031 69.3942 82.8818 68.9715 83.8196 68.57C85.0129 68.1898 86.4195 67.5351 87.7622 66.5627C90.0427 64.8938 92.2372 62.5693 92.1093 59.4214C92.0453 57.9845 91.6619 56.5685 91.129 55.1951C94.0059 54.0125 97.714 53.3572 102.445 53.9064C112.589 55.0895 114.592 61.3649 114.208 64.0066C113.824 66.6474 111.693 68.0843 110.991 68.5279C110.287 68.9719 110.053 69.1196 110.117 69.4364C110.202 69.9013 110.543 69.8804 111.14 69.7957C111.971 69.648 116.467 67.6615 116.659 62.8017C116.979 56.5898 111.012 49.8075 100.463 49.8709ZM22.2112 76.0289C18.844 79.6629 14.156 81.0364 12.1314 79.8746C9.95792 78.6276 10.8102 73.2607 14.9443 69.4155C17.4588 67.0702 20.6981 64.8933 22.8506 63.5625C23.3405 63.2666 24.0653 62.8443 24.9391 62.316C25.0881 62.2312 25.1736 62.1891 25.1736 62.1891L25.6849 61.8719C27.1976 67.3656 25.7489 72.2045 22.2112 76.0289ZM46.7183 59.5057C45.5461 62.3373 43.0956 69.5845 41.6039 69.1831C40.3252 68.845 39.5364 63.3514 41.348 57.9211C42.2643 55.1951 44.2034 51.9412 45.3331 50.6738C47.1657 48.6452 49.1903 47.9687 49.6802 48.7934C50.2985 49.8709 47.4427 57.7308 46.7183 59.5057ZM66.9418 69.0983C66.4515 69.3521 65.983 69.5211 65.7696 69.3942C65.6206 69.3095 65.983 68.9715 65.983 68.9715C65.983 68.9715 68.519 66.2672 69.5203 65.0415C70.0961 64.3233 70.7775 63.4782 71.5023 62.5271V62.8017C71.5023 66.0348 68.348 68.2111 66.9414 69.0983H66.9418ZM82.5409 65.5699C82.1785 65.3161 82.2425 64.471 83.4572 61.8298C83.9261 60.7944 85.0339 59.0621 86.9309 57.3928C87.1439 58.0688 87.2933 58.724 87.2719 59.3367C87.2504 63.4148 84.31 64.9359 82.5409 65.5699Z"
              fill="#CD6799"/>
    </g>

    <!--  icon-MyTechStack-TailWind  -->
    <g id="icon-MyTechStack-TailWind">
        <path d="M28.75 30C32.5833 10 42.1667 0 57.5 0C80.5 0 83.375 22.5 94.875 26.25C102.542 28.75 109.25 25 115 15C111.167 35 101.583 45 86.25 45C63.25 45 60.375 22.5 48.875 18.75C41.2083 16.25 34.5 20 28.75 30ZM0 75C3.83333 55 13.4167 45 28.75 45C51.75 45 54.625 67.5 66.125 71.25C73.7917 73.75 80.5 70 86.25 60C82.4167 80 72.8333 90 57.5 90C34.5 90 31.625 67.5 20.125 63.75C12.4583 61.25 5.75 65 0 75Z"
              fill="#44A8B3"/>
    </g>

    <!--  icon-MyTechStack-TypeScript  -->
    <g id="icon-MyTechStack-TypeScript">
        <g clip-path="url(#clip0_19_1614)">
            <path d="M0 52.5V0H105V105H0" fill="#007ACC"/>
            <path d="M23.0215 52.6835V56.9623H36.6715V95.8123H46.3577V56.9623H60.0077V52.7623C60.0077 50.3998 60.0077 48.4835 59.9027 48.431C59.9027 48.3523 51.5815 48.326 41.4752 48.326L23.1002 48.4048V52.7098L23.0215 52.6835ZM84.3677 48.2998C87.0452 48.9298 89.0927 50.1373 90.9302 52.0535C91.9015 53.1035 93.3452 54.941 93.4502 55.4135C93.4502 55.571 88.909 58.6423 86.1527 60.3485C86.0477 60.4273 85.6277 59.981 85.2077 59.2985C83.8427 57.356 82.4515 56.516 80.2727 56.3585C77.1227 56.1485 75.0227 57.8023 75.0227 60.5585C75.0227 61.3985 75.1802 61.871 75.4952 62.5535C76.204 63.9973 77.5165 64.8635 81.5852 66.6485C89.0927 69.8773 92.3477 72.0035 94.3165 75.0485C96.5477 78.461 97.0465 83.816 95.5502 87.8323C93.8702 92.216 89.7752 95.1823 83.9215 96.1535C82.084 96.4685 77.884 96.416 75.9152 96.0748C71.7152 95.2873 67.699 93.1873 65.2315 90.4835C64.2602 89.4335 62.3965 86.6248 62.5015 86.441L63.499 85.811L67.4365 83.5273L70.4027 81.7948L71.0852 82.7135C71.9515 84.0785 73.894 85.916 75.0227 86.546C78.4352 88.3048 83.0027 88.0685 85.2602 86.021C86.2315 85.1285 86.6515 84.1835 86.6515 82.871C86.6515 81.6635 86.4677 81.1123 85.864 80.1935C85.024 79.0385 83.344 78.0935 78.619 75.9935C73.1852 73.6835 70.8752 72.2135 68.7227 69.956C67.489 68.591 66.3602 66.4648 65.8352 64.706C65.4415 63.1835 65.3102 59.456 65.6777 57.9598C66.8065 52.7098 70.7702 49.0348 76.4402 47.9848C78.2777 47.6173 82.609 47.7748 84.4202 48.2473L84.3677 48.2998Z"
                  fill="#191919"/>
        </g>
        <defs>
            <clipPath id="clip0_19_1614">
                <rect width="105" height="105" fill="white"/>
            </clipPath>
        </defs>
    </g>

    <!--  icon-MyTechStack-WebPack  -->
    <g id="icon-MyTechStack-WebPack">
        <g clip-path="url(#clip0_19_1664)">
            <path d="M60.0002 0L113.03 30V90L60.0002 120L6.97021 90V30L60.0002 0Z" fill="#191919"/>
            <path d="M103.56 87.9299L61.7502 111.58V93.1599L87.8002 78.8299L103.56 87.9299ZM106.42 85.3399V35.8799L91.1201 44.7099V76.4999L106.42 85.3399ZM16.2702 87.9299L58.0802 111.58V93.1599L32.0302 78.8299L16.2702 87.9299ZM13.4102 85.3399V35.8799L28.7102 44.7099V76.4999L13.4102 85.3399ZM15.2002 32.6799L58.0802 8.41992V26.2299L30.6102 41.3399L30.4002 41.4599L15.2002 32.6799ZM104.63 32.6799L61.7502 8.41992V26.2299L89.2201 41.3399L89.4301 41.4599L104.63 32.6799Z"
                  fill="#8ED6FB"/>
            <path d="M58.0799 88.9702L32.3799 74.8402V46.8402L58.0799 61.6802V88.9702ZM61.7499 88.9702L87.4499 74.8402V46.8402L61.7499 61.6802V88.9702ZM34.1199 43.6002L59.9199 29.4102L85.7199 43.6002L59.9199 58.5002L34.1199 43.6002Z"
                  fill="#1C78C0"/>
        </g>
        <defs>
            <clipPath id="clip0_19_1664">
                <rect width="120" height="120" fill="white"/>
            </clipPath>
        </defs>
    </g>

    <!--  icon-projects-GitHub  -->
    <g id="icon-projects-GitHub">
        <path fill-rule="evenodd" clip-rule="evenodd"
              d="M10 0C4.475 0 0 4.475 0 10C0 14.425 2.8625 18.1625 6.8375 19.4875C7.3375 19.575 7.525 19.275 7.525 19.0125C7.525 18.775 7.5125 17.9875 7.5125 17.15C5 17.6125 4.35 16.5375 4.15 15.975C4.0375 15.6875 3.55 14.8 3.125 14.5625C2.775 14.375 2.275 13.9125 3.1125 13.9C3.9 13.8875 4.4625 14.625 4.65 14.925C5.55 16.4375 6.9875 16.0125 7.5625 15.75C7.65 15.1 7.9125 14.6625 8.2 14.4125C5.975 14.1625 3.65 13.3 3.65 9.475C3.65 8.3875 4.0375 7.4875 4.675 6.7875C4.575 6.5375 4.225 5.5125 4.775 4.1375C4.775 4.1375 5.6125 3.875 7.525 5.1625C8.325 4.9375 9.175 4.825 10.025 4.825C10.875 4.825 11.725 4.9375 12.525 5.1625C14.4375 3.8625 15.275 4.1375 15.275 4.1375C15.825 5.5125 15.475 6.5375 15.375 6.7875C16.0125 7.4875 16.4 8.375 16.4 9.475C16.4 13.3125 14.0625 14.1625 11.8375 14.4125C12.2 14.725 12.5125 15.325 12.5125 16.2625C12.5125 17.6 12.5 18.675 12.5 19.0125C12.5 19.275 12.6875 19.5875 13.1875 19.4875C15.1726 18.8173 16.8976 17.5414 18.1197 15.8395C19.3418 14.1375 19.9994 12.0952 20 10C20 4.475 15.525 0 10 0Z"
              fill="white"/>
    </g>

    <!--===============================================================================================================-->
</svg>




