<svg width="120" height="120" viewBox="0 0 120 120" fill="none" xmlns="http://www.w3.org/2000/svg">
<g clip-path="url(#clip0_19_1664)">
<path d="M60.0002 0L113.03 30V90L60.0002 120L6.97021 90V30L60.0002 0Z" fill="#191919"/>
<path d="M103.56 87.9299L61.7502 111.58V93.1599L87.8002 78.8299L103.56 87.9299ZM106.42 85.3399V35.8799L91.1201 44.7099V76.4999L106.42 85.3399ZM16.2702 87.9299L58.0802 111.58V93.1599L32.0302 78.8299L16.2702 87.9299ZM13.4102 85.3399V35.8799L28.7102 44.7099V76.4999L13.4102 85.3399ZM15.2002 32.6799L58.0802 8.41992V26.2299L30.6102 41.3399L30.4002 41.4599L15.2002 32.6799ZM104.63 32.6799L61.7502 8.41992V26.2299L89.2201 41.3399L89.4301 41.4599L104.63 32.6799Z" fill="#8ED6FB"/>
<path d="M58.0799 88.9702L32.3799 74.8402V46.8402L58.0799 61.6802V88.9702ZM61.7499 88.9702L87.4499 74.8402V46.8402L61.7499 61.6802V88.9702ZM34.1199 43.6002L59.9199 29.4102L85.7199 43.6002L59.9199 58.5002L34.1199 43.6002Z" fill="#1C78C0"/>
</g>
<defs>
<clipPath id="clip0_19_1664">
<rect width="120" height="120" fill="white"/>
</clipPath>
</defs>
</svg>
