<svg width="120" height="120" viewBox="0 0 120 120" fill="none" xmlns="http://www.w3.org/2000/svg">
<path d="M22.1323 102.004L13.7061 7.5H106.294L97.856 101.989L59.9436 112.5L22.1323 102.004Z" fill="#E44F26"/>
<path d="M60 104.467L90.6375 95.9735L97.845 15.2285H60V104.467Z" fill="#F1662A"/>
<path d="M60 50.2764H44.6625L43.605 38.4077H60V26.8164H30.9375L31.215 29.9289L34.0613 61.8677H60V50.2764ZM60 80.3777L59.9475 80.3927L47.04 76.9089L46.215 67.6652H34.5787L36.2025 85.8602L59.9475 92.4527L60 92.4377V80.3777Z" fill="#191919"/>
<path d="M59.959 50.2764V61.8677H74.2315L72.889 76.9014L59.959 80.3889V92.4489L83.7227 85.8602L83.8952 83.9027L86.6177 53.3889L86.9027 50.2764H59.959ZM59.959 26.8164V38.4077H87.9565L88.189 35.8052L88.7177 29.9289L88.9952 26.8164H59.959Z" fill="#191919"/>
</svg>
