<svg width="105" height="105" viewBox="0 0 105 105" fill="none" xmlns="http://www.w3.org/2000/svg">
<g clip-path="url(#clip0_19_1668)">
<path d="M47.7746 1.33312C50.6295 -0.150656 54.348 -0.157358 57.2004 1.33312C71.5507 8.69578 85.9055 16.0469 100.253 23.414C102.952 24.7943 104.757 27.5213 104.73 30.3448V74.6414C104.75 77.5817 102.766 80.3739 99.9191 81.7229C85.616 89.045 71.3202 96.376 57.0196 103.698C54.1056 105.211 50.3125 105.094 47.4896 103.458C43.2016 101.2 38.9061 98.9545 34.6176 96.6996C33.7413 96.2252 32.7535 95.8476 32.1347 95.0762C32.6817 94.4067 33.6597 94.3233 34.4544 94.031C36.2444 93.5142 37.8883 92.6846 39.5327 91.8796C39.9485 91.6212 40.4562 91.7203 40.8547 91.9515C44.5216 93.8605 48.156 95.8249 51.8351 97.7157C52.62 98.1271 53.4147 97.5809 54.0855 97.2413C68.1213 90.0384 82.1743 82.8626 96.2076 75.6575C96.7275 75.4304 97.015 74.9292 96.9728 74.412C96.9826 59.7995 96.9752 45.1844 96.9777 30.5719C97.0372 29.9851 96.6632 29.4456 96.0788 29.2054C81.8253 21.9168 67.5792 14.6171 53.3282 7.32668C53.0812 7.17255 52.7888 7.08986 52.4891 7.08946C52.1895 7.08906 51.8967 7.17098 51.6493 7.32445C37.3983 14.6171 23.1546 21.9235 8.9036 29.2117C8.3213 29.4523 7.93051 29.9829 7.99981 30.5719C8.00227 45.1844 7.99981 59.7995 7.99981 74.4142C7.9751 74.6666 8.03614 74.9197 8.17471 75.1396C8.31327 75.3595 8.52272 75.5356 8.77484 75.6441C12.5778 77.6022 16.3857 79.5466 20.1911 81.498C22.3349 82.5458 24.9671 83.1683 27.3291 82.3656C29.4135 81.6868 30.8745 79.7555 30.8348 77.7459C30.8545 63.2187 30.8249 48.6892 30.8495 34.1642C30.7975 33.5193 31.4712 32.9865 32.1617 33.0472C33.989 33.036 35.8187 33.0249 37.646 33.0517C38.4087 33.036 38.9336 33.7305 38.8393 34.3802C38.8319 48.9994 38.859 63.619 38.827 78.2382C38.8319 82.1343 37.069 86.3738 33.1 88.2802C28.2104 90.5801 22.1668 90.0924 17.3362 87.887C13.1543 85.9918 9.16358 83.7551 5.05594 81.7248C2.20147 80.3832 0.227818 77.5799 0.247912 74.6417V30.3448C0.217977 27.4629 2.09485 24.6863 4.87756 23.3262C19.1782 15.9981 33.4764 8.6645 47.7746 1.33312Z" fill="#8CC84B"/>
<path d="M60.2503 32.0179C66.4874 31.6534 73.1645 31.802 78.7771 34.5919C83.1225 36.7299 85.5317 41.217 85.6084 45.6005C85.487 46.1918 84.8063 46.518 84.1846 46.4774C82.375 46.4752 80.565 46.4997 78.7553 46.4662C77.9877 46.493 77.5415 45.8504 77.4452 45.2341C76.9252 43.1368 75.6655 41.0595 73.4913 40.0478C70.1538 38.5305 66.284 38.6069 62.6446 38.6385C59.9878 38.7666 57.1309 38.9755 54.88 40.3941C53.152 41.4687 52.6271 43.6379 53.2439 45.3849C53.8253 46.6394 55.4201 47.0441 56.7249 47.4172C64.2414 49.2022 72.2066 49.0246 79.5796 51.3737C82.6321 52.3313 85.6182 54.193 86.6631 57.0951C88.0298 60.9845 87.4307 65.6336 84.3831 68.756C81.9116 71.3255 78.312 72.724 74.7219 73.4836C69.9459 74.4506 64.9894 74.4752 60.1391 74.0459C55.5784 73.5737 50.8323 72.4857 47.3114 69.6642C44.3007 67.2905 42.8302 63.592 42.9762 60.0224C43.0111 59.4196 43.6721 58.9992 44.3081 59.0487C46.1304 59.0353 47.9528 59.0309 49.7751 59.051C50.503 59.0037 51.0426 59.5748 51.0799 60.1978C51.4162 62.1961 52.2433 64.2935 54.1624 65.4783C57.8661 67.6479 62.5134 67.4994 66.7543 67.5601C70.2678 67.4186 74.2118 67.3757 77.079 65.2672C78.5917 64.0645 79.0399 62.0524 78.6311 60.3214C78.1882 58.8599 76.5045 58.1789 75.0586 57.7336C67.6384 55.6023 59.5843 56.3757 52.2359 53.9655C49.2527 53.0082 46.3679 51.1983 45.2217 48.4154C43.6225 44.4768 44.3553 39.6051 47.7223 36.588C51.0053 33.587 55.7444 32.4316 60.2503 32.0179Z" fill="#8CC84B"/>
</g>
<defs>
<clipPath id="clip0_19_1668">
<rect width="105" height="105" fill="white"/>
</clipPath>
</defs>
</svg>
