<svg width="120" height="120" viewBox="0 0 120 120" fill="none" xmlns="http://www.w3.org/2000/svg">
<path d="M7.5 7.5H112.5V112.5H7.5V7.5Z" fill="#F5DE19"/>
<path d="M78.0338 89.531C78.9284 91.3482 80.3183 92.8757 82.0434 93.9372C83.7684 94.9988 85.7584 95.5513 87.7838 95.531C91.8713 95.531 94.485 93.4873 94.485 90.656C94.485 87.281 91.8 86.0735 87.3 84.1048L84.8325 83.0473C77.7075 80.0135 72.9825 76.2148 72.9825 68.1823C72.9825 60.7835 78.6075 55.1473 87.4313 55.1473C90.2877 54.941 93.1416 55.5803 95.637 56.9854C98.1324 58.3905 100.159 60.4992 101.464 63.0485L93.75 67.9798C93.2476 66.7157 92.3728 65.6343 91.2416 64.8788C90.1105 64.1234 88.7764 63.7296 87.4163 63.7498C86.8229 63.6904 86.2236 63.7552 85.6567 63.9402C85.0897 64.1252 84.5675 64.4263 84.1234 64.8242C83.6792 65.2222 83.3228 65.7083 83.0769 66.2516C82.831 66.7949 82.7009 67.3834 82.695 67.9798C82.695 70.9385 84.5288 72.1385 88.7625 73.9798L91.23 75.0373C99.615 78.6335 104.355 82.2973 104.355 90.536C104.355 99.4198 97.3763 104.287 88.005 104.287C84.3537 104.52 80.713 103.691 77.5223 101.9C74.3317 100.11 71.7274 97.4339 70.0238 94.196L78.0338 89.531ZM43.1775 90.386C44.7263 93.1348 46.1363 95.4598 49.5263 95.4598C52.7663 95.4598 54.8138 94.1923 54.8138 89.261V55.7098H64.68V89.3923C64.68 99.6073 58.68 104.257 49.9463 104.257C46.8591 104.426 43.7931 103.657 41.1513 102.05C38.5096 100.444 36.4157 98.0759 35.145 95.2573L43.1775 90.386Z" fill="black"/>
</svg>
