<svg width="117" height="87" viewBox="0 0 117 87" fill="none" xmlns="http://www.w3.org/2000/svg">
<path d="M100.463 49.8709C96.3928 49.8917 92.8551 50.8637 89.8932 52.3005C88.806 50.1663 87.7193 48.265 87.5278 46.8703C87.3144 45.2436 87.0589 44.2503 87.3143 42.3064C87.5703 40.3625 88.721 37.5944 88.6995 37.3832C88.6785 37.1721 88.4436 36.1788 86.0996 36.158C83.7556 36.1367 81.7311 36.6016 81.4966 37.2142C81.2622 37.8268 80.8148 39.2215 80.5163 40.658C80.1114 42.7713 75.8284 50.314 73.3779 54.2653C72.5891 52.7233 71.9072 51.3707 71.7578 50.2932C71.5448 48.6665 71.2889 47.6732 71.5448 45.7293C71.8007 43.7854 72.9515 41.0177 72.93 40.8061C72.9085 40.595 72.6741 39.6017 70.3301 39.5809C67.9856 39.5596 65.9611 40.0245 65.7271 40.6371C65.4927 41.2502 65.2367 42.6866 64.7468 44.0813C64.2565 45.476 58.5667 58.0693 57.075 61.3227C56.4722 62.6396 55.8399 63.9429 55.1784 65.2318C55.1784 65.2318 55.157 65.2953 55.093 65.4008C54.8852 65.805 54.6722 66.2065 54.4541 66.6052V66.6261C54.1342 67.197 53.7932 67.7249 53.6228 67.7249C53.4948 67.7249 53.2604 66.2038 53.6653 64.133C54.5176 59.7594 56.5421 52.9558 56.5211 52.7233C56.5211 52.5964 56.9046 51.4133 55.1999 50.8003C53.5373 50.1876 52.9409 51.2017 52.7915 51.2017C52.6425 51.2017 52.5356 51.5611 52.5356 51.5611C52.5356 51.5611 54.3901 43.9123 48.9983 43.9123C45.6315 43.9123 40.9856 47.5677 38.6841 50.8637C36.0678 52.2754 33.4537 53.6911 30.8418 55.1108C29.5851 55.8082 28.2849 56.5055 27.0701 57.1603C26.9847 57.076 26.8997 56.97 26.8142 56.8857C20.2932 49.9765 8.2318 45.0954 8.74319 35.8199C8.93513 32.4392 10.1069 23.5647 31.9076 12.789C49.8506 4.02008 64.129 6.44974 66.6009 11.8378C70.1382 19.5292 58.9506 33.8126 40.4102 35.8829C33.3353 36.665 29.6271 33.9603 28.6898 32.9462C27.7095 31.8895 27.5601 31.8261 27.1976 32.0377C26.6012 32.3549 26.9847 33.3055 27.1976 33.8547C27.752 35.2911 30.032 37.8268 33.8892 39.0738C37.2989 40.1722 45.5886 40.7853 55.6258 36.9396C66.8564 32.629 75.6364 20.6489 73.058 10.6126C70.4791 0.428159 53.4308 -2.93131 37.2989 2.75224C27.7095 6.13346 17.3098 11.4577 9.82995 18.3882C0.943427 26.6283 -0.463244 33.7913 0.112129 36.7919C2.17964 47.4408 16.9904 54.3713 22.9146 59.5057C22.6161 59.6747 22.3387 59.8229 22.1047 59.9497C19.1424 61.4075 7.84791 67.26 5.03502 73.4511C1.83871 80.4659 5.54687 85.4951 7.99735 86.1707C15.6052 88.2628 23.426 84.5019 27.624 78.2895C31.8221 72.0776 31.3107 64.0061 29.3716 60.3086C29.3502 60.2665 29.3291 60.2239 29.2862 60.1817C30.0535 59.7381 30.8418 59.2732 31.6091 58.8296C33.0194 58.003 34.4476 57.2068 35.8927 56.4417C35.1679 58.4069 34.635 60.7522 34.3795 64.133C34.0596 68.1055 35.7003 73.2607 37.8528 75.2889C38.8121 76.1771 39.9413 76.1979 40.6661 76.1979C43.1806 76.1979 44.3103 74.1271 45.5676 71.6762C47.1017 68.676 48.4869 65.1897 48.4869 65.1897C48.4869 65.1897 46.7608 74.6133 51.4492 74.6133C53.1539 74.6133 54.88 72.4157 55.6473 71.296V71.3168C55.6473 71.3168 55.6898 71.2534 55.7753 71.1057C55.9458 70.8311 56.0522 70.6616 56.0522 70.6616V70.6199C56.7341 69.4364 58.2687 66.753 60.5487 62.2947C63.4896 56.5477 66.324 49.3638 66.324 49.3638C66.324 49.3638 66.5799 51.1174 67.4532 54.0333C67.9651 55.7448 69.0299 57.6252 69.8827 59.4422C69.2008 60.3934 68.7744 60.9212 68.7744 60.9212L68.7959 60.9425C68.2416 61.6607 67.6452 62.4424 66.9843 63.2036C64.6614 65.95 61.8914 69.0988 61.5075 70.0069C61.0597 71.0844 61.1666 71.8665 62.0194 72.5004C62.6373 72.9653 63.7451 73.0283 64.8748 72.9653C66.9633 72.8171 68.4335 72.3101 69.1579 71.9934C70.2876 71.5919 71.6088 70.9788 72.8446 70.0703C75.125 68.401 76.5098 66.0135 76.3823 62.8656C76.3183 61.1329 75.7429 59.4001 75.0396 57.7729C75.253 57.4775 75.4445 57.1816 75.6579 56.8857C79.2591 51.6666 82.051 45.9405 82.051 45.9405C82.051 45.9405 82.3069 47.6941 83.1803 50.6104C83.6066 52.0894 84.4804 53.6953 85.2473 55.2585C81.859 57.9845 79.7705 61.1537 79.0247 63.2245C77.6824 67.0702 78.7262 68.8024 80.7083 69.2039C81.6031 69.3942 82.8818 68.9715 83.8196 68.57C85.0129 68.1898 86.4195 67.5351 87.7622 66.5627C90.0427 64.8938 92.2372 62.5693 92.1093 59.4214C92.0453 57.9845 91.6619 56.5685 91.129 55.1951C94.0059 54.0125 97.714 53.3572 102.445 53.9064C112.589 55.0895 114.592 61.3649 114.208 64.0066C113.824 66.6474 111.693 68.0843 110.991 68.5279C110.287 68.9719 110.053 69.1196 110.117 69.4364C110.202 69.9013 110.543 69.8804 111.14 69.7957C111.971 69.648 116.467 67.6615 116.659 62.8017C116.979 56.5898 111.012 49.8075 100.463 49.8709ZM22.2112 76.0289C18.844 79.6629 14.156 81.0364 12.1314 79.8746C9.95792 78.6276 10.8102 73.2607 14.9443 69.4155C17.4588 67.0702 20.6981 64.8933 22.8506 63.5625C23.3405 63.2666 24.0653 62.8443 24.9391 62.316C25.0881 62.2312 25.1736 62.1891 25.1736 62.1891L25.6849 61.8719C27.1976 67.3656 25.7489 72.2045 22.2112 76.0289ZM46.7183 59.5057C45.5461 62.3373 43.0956 69.5845 41.6039 69.1831C40.3252 68.845 39.5364 63.3514 41.348 57.9211C42.2643 55.1951 44.2034 51.9412 45.3331 50.6738C47.1657 48.6452 49.1903 47.9687 49.6802 48.7934C50.2985 49.8709 47.4427 57.7308 46.7183 59.5057ZM66.9418 69.0983C66.4515 69.3521 65.983 69.5211 65.7696 69.3942C65.6206 69.3095 65.983 68.9715 65.983 68.9715C65.983 68.9715 68.519 66.2672 69.5203 65.0415C70.0961 64.3233 70.7775 63.4782 71.5023 62.5271V62.8017C71.5023 66.0348 68.348 68.2111 66.9414 69.0983H66.9418ZM82.5409 65.5699C82.1785 65.3161 82.2425 64.471 83.4572 61.8298C83.9261 60.7944 85.0339 59.0621 86.9309 57.3928C87.1439 58.0688 87.2933 58.724 87.2719 59.3367C87.2504 63.4148 84.31 64.9359 82.5409 65.5699Z" fill="#CD6799"/>
</svg>
