<svg width="120" height="119" viewBox="0 0 120 119" fill="none" xmlns="http://www.w3.org/2000/svg">
<path d="M22.1325 101.154L13.71 7.4375H106.29L97.8562 101.139L59.9437 111.562L22.1325 101.154Z" fill="#1572B6"/>
<path d="M60 103.597L90.6375 95.1742L97.845 15.1021H60V103.597Z" fill="#33A9DC"/>
<path d="M60 49.054H75.3375L76.395 37.2842H60V25.7896H89.0625L88.785 28.8724L85.9387 60.5487H60V49.054Z" fill="#191919"/>
<path d="M60.0711 78.9042L60.0186 78.9191L47.1112 75.4607L46.2862 66.2939H34.6499L36.2737 84.341L60.0149 90.8786L60.0711 90.8637V78.9042Z" fill="#191919"/>
<path d="M74.351 60.0615L72.956 75.4534L60.0298 78.9119V90.8714L83.7898 84.3412L83.966 82.4001L85.9798 60.0615H74.351Z" fill="#191919"/>
<path d="M60.0411 25.7896V37.2842H32.0436L31.8111 34.6997L31.2824 28.8724L31.0049 25.7896H60.0411ZM59.9999 49.054V60.5487H47.2536L47.0211 57.9642L46.4961 52.1369L46.2186 49.054H59.9999Z" fill="#191919"/>
</svg>
