<svg width="105" height="105" viewBox="0 0 105 105" fill="none" xmlns="http://www.w3.org/2000/svg">
<g clip-path="url(#clip0_19_1672)">
<path d="M49.065 0.0819406C48.8395 0.102446 48.1218 0.174217 47.4758 0.225481C32.5784 1.56861 18.6242 9.60689 9.78616 21.9616C4.86476 28.8311 1.71712 36.6233 0.527786 44.8769C0.107417 47.7579 0.0561523 48.6089 0.0561523 52.5153C0.0561523 56.4216 0.107417 57.2726 0.527786 60.1537C3.37809 79.8495 17.3938 96.3977 36.4027 102.529C39.8067 103.626 43.3952 104.374 47.4758 104.826C49.065 105 55.9345 105 57.5237 104.826C64.5674 104.046 70.5346 102.303 76.4198 99.2993C77.322 98.8379 77.4963 98.7149 77.3733 98.6124C77.2913 98.5508 73.4464 93.3936 68.8326 87.1599L60.4458 75.8304L49.9365 60.2767C44.1539 51.7258 39.3965 44.7333 39.3555 44.7333C39.3145 44.7231 39.2735 51.6335 39.253 60.0717C39.2222 74.8461 39.212 75.4408 39.0274 75.7894C38.7609 76.2918 38.5558 76.4968 38.1252 76.7224C37.7971 76.8865 37.51 76.9172 35.9618 76.9172H34.1881L33.7164 76.6199C33.4089 76.4251 33.1833 76.1687 33.0295 75.8714L32.8142 75.41L32.8347 54.853L32.8654 34.2856L33.1833 33.8858C33.3473 33.6705 33.6959 33.3936 33.942 33.2603C34.3624 33.0553 34.5264 33.0348 36.3002 33.0348C38.3918 33.0348 38.7404 33.1168 39.2838 33.7115C39.4376 33.8755 45.1279 42.4469 51.9359 52.7716C58.7438 63.0963 68.0534 77.194 72.6262 84.1148L80.9311 96.6951L81.3514 96.4182C85.0732 93.9986 89.0104 90.5536 92.1272 86.9651C98.7609 79.3472 103.036 70.058 104.472 60.1537C104.892 57.2726 104.943 56.4216 104.943 52.5153C104.943 48.6089 104.892 47.7579 104.472 44.8769C101.621 25.181 87.6057 8.63286 68.5968 2.50163C65.2441 1.41482 61.6761 0.666356 57.6775 0.215228C56.6932 0.112699 49.916 -8.26269e-05 49.065 0.0819406ZM70.5346 31.8044C71.0268 32.0505 71.4266 32.5221 71.5702 33.0143C71.6522 33.2808 71.6727 38.9815 71.6522 51.8284L71.6214 70.2631L68.3713 65.2802L65.1108 60.2973V46.8967C65.1108 38.233 65.1518 33.3629 65.2134 33.1271C65.3774 32.5529 65.7363 32.1018 66.2284 31.8352C66.6488 31.6199 66.8026 31.5994 68.4123 31.5994C69.9297 31.5994 70.1963 31.6199 70.5346 31.8044Z" fill="#FFFEFE"/>
<path d="M80.4186 96.9209C80.0598 97.1464 79.947 97.3002 80.2648 97.1259C80.4904 96.9926 80.8595 96.7158 80.798 96.7056C80.7672 96.7056 80.5929 96.8081 80.4186 96.9209ZM79.7112 97.3823C79.5266 97.5258 79.5266 97.5361 79.7522 97.4233C79.8752 97.3618 79.9778 97.29 79.9778 97.2695C79.9778 97.1875 79.9265 97.208 79.7112 97.3823ZM79.1985 97.6898C79.014 97.8334 79.014 97.8436 79.2395 97.7309C79.3626 97.6693 79.4651 97.5976 79.4651 97.5771C79.4651 97.495 79.4138 97.5155 79.1985 97.6898ZM78.6859 97.9974C78.5013 98.141 78.5013 98.1512 78.7269 98.0384C78.8499 97.9769 78.9525 97.9052 78.9525 97.8847C78.9525 97.8026 78.9012 97.8231 78.6859 97.9974ZM77.9067 98.4075C77.5171 98.6126 77.5376 98.6946 77.9272 98.4998C78.1015 98.4075 78.2348 98.3153 78.2348 98.2948C78.2348 98.223 78.2245 98.2332 77.9067 98.4075Z" fill="black"/>
</g>
<defs>
<clipPath id="clip0_19_1672">
<rect width="105" height="105" fill="white"/>
</clipPath>
</defs>
</svg>
