<svg width="105" height="105" viewBox="0 0 105 105" fill="none" xmlns="http://www.w3.org/2000/svg">
<g clip-path="url(#clip0_19_1614)">
<path d="M0 52.5V0H105V105H0" fill="#007ACC"/>
<path d="M23.0215 52.6835V56.9623H36.6715V95.8123H46.3577V56.9623H60.0077V52.7623C60.0077 50.3998 60.0077 48.4835 59.9027 48.431C59.9027 48.3523 51.5815 48.326 41.4752 48.326L23.1002 48.4048V52.7098L23.0215 52.6835ZM84.3677 48.2998C87.0452 48.9298 89.0927 50.1373 90.9302 52.0535C91.9015 53.1035 93.3452 54.941 93.4502 55.4135C93.4502 55.571 88.909 58.6423 86.1527 60.3485C86.0477 60.4273 85.6277 59.981 85.2077 59.2985C83.8427 57.356 82.4515 56.516 80.2727 56.3585C77.1227 56.1485 75.0227 57.8023 75.0227 60.5585C75.0227 61.3985 75.1802 61.871 75.4952 62.5535C76.204 63.9973 77.5165 64.8635 81.5852 66.6485C89.0927 69.8773 92.3477 72.0035 94.3165 75.0485C96.5477 78.461 97.0465 83.816 95.5502 87.8323C93.8702 92.216 89.7752 95.1823 83.9215 96.1535C82.084 96.4685 77.884 96.416 75.9152 96.0748C71.7152 95.2873 67.699 93.1873 65.2315 90.4835C64.2602 89.4335 62.3965 86.6248 62.5015 86.441L63.499 85.811L67.4365 83.5273L70.4027 81.7948L71.0852 82.7135C71.9515 84.0785 73.894 85.916 75.0227 86.546C78.4352 88.3048 83.0027 88.0685 85.2602 86.021C86.2315 85.1285 86.6515 84.1835 86.6515 82.871C86.6515 81.6635 86.4677 81.1123 85.864 80.1935C85.024 79.0385 83.344 78.0935 78.619 75.9935C73.1852 73.6835 70.8752 72.2135 68.7227 69.956C67.489 68.591 66.3602 66.4648 65.8352 64.706C65.4415 63.1835 65.3102 59.456 65.6777 57.9598C66.8065 52.7098 70.7702 49.0348 76.4402 47.9848C78.2777 47.6173 82.609 47.7748 84.4202 48.2473L84.3677 48.2998Z" fill="black"/>
</g>
<defs>
<clipPath id="clip0_19_1614">
<rect width="105" height="105" fill="white"/>
</clipPath>
</defs>
</svg>
