<svg width="105" height="120" viewBox="0 0 105 120" fill="none" xmlns="http://www.w3.org/2000/svg">
<path d="M10.7425 89.959L6.53076 87.5368L53.4497 6.58887L57.6614 9.01106L10.7425 89.959Z" fill="#E535AB"/>
<path d="M5.56641 81.0698H99.4043V85.9142H5.56641V81.0698Z" fill="#E535AB"/>
<path d="M54.3599 110.786L7.42334 83.7917L9.85498 79.5964L56.7915 106.591L54.3599 110.786ZM95.1335 40.4319L48.197 13.4375L50.6286 9.24219L97.5651 36.2365L95.1335 40.4319Z" fill="#E535AB"/>
<path d="M9.86768 40.413L7.43604 36.2179L54.3726 9.22363L56.8042 13.4187L9.86768 40.413Z" fill="#E535AB"/>
<path d="M94.268 89.9599L47.349 9.01204L51.5607 6.58984L98.4797 87.5378L94.268 89.9599ZM9.28711 33.0055H14.1504V86.9941H9.28711V33.0055Z" fill="#E535AB"/>
<path d="M90.8496 33.0054H95.7129V86.994H90.8496V33.0054Z" fill="#E535AB"/>
<path d="M53.5317 108.735L51.4077 105.071L92.23 81.5928L94.354 85.2573L53.5317 108.735Z" fill="#E535AB"/>
<path d="M102.158 88.5699C99.3457 93.4435 93.0762 95.1069 88.1836 92.3054C83.291 89.5038 81.6211 83.2586 84.4336 78.3851C87.2461 73.5115 93.5156 71.8481 98.4082 74.6496C103.33 77.4804 105 83.6964 102.158 88.5699ZM20.5371 41.6144C17.7246 46.488 11.4551 48.1514 6.56252 45.3499C1.66994 42.5483 1.9541e-05 36.3031 2.81252 31.4296C5.62502 26.556 11.8946 24.8926 16.7871 27.6941C21.6797 30.5249 23.3496 36.7409 20.5371 41.6144ZM2.84182 88.5699C0.0293165 83.6964 1.69924 77.4804 6.59182 74.6496C11.4844 71.8481 17.7246 73.5115 20.5664 78.3851C23.3789 83.2586 21.709 89.4746 16.8164 92.3054C11.8946 95.1069 5.65432 93.4435 2.84182 88.5699ZM84.4629 41.6144C81.6504 36.7409 83.3203 30.5249 88.2129 27.6941C93.1055 24.8926 99.3457 26.556 102.188 31.4296C105 36.3031 103.33 42.5191 98.4375 45.3499C93.5449 48.1514 87.2754 46.488 84.4629 41.6144ZM52.5 117.14C46.8457 117.14 42.2754 112.588 42.2754 106.955C42.2754 101.323 46.8457 96.7704 52.5 96.7704C58.1543 96.7704 62.7246 101.323 62.7246 106.955C62.7246 112.558 58.1543 117.14 52.5 117.14ZM52.5 23.2291C46.8457 23.2291 42.2754 18.6766 42.2754 13.0443C42.2754 7.41193 46.8457 2.85938 52.5 2.85938C58.1543 2.85938 62.7246 7.41193 62.7246 13.0443C62.7246 18.6766 58.1543 23.2291 52.5 23.2291Z" fill="#E535AB"/>
</svg>
