<svg width="105" height="105" viewBox="0 0 105 105" fill="none" xmlns="http://www.w3.org/2000/svg">
<g clip-path="url(#clip0_19_1601)">
<path d="M103.02 47.8221L57.1758 1.98062C54.5372 -0.659556 50.2552 -0.659556 47.6134 1.98062L38.0937 11.5003L50.1699 23.5766C52.9762 22.6283 56.1943 23.2645 58.4313 25.5014C60.6789 27.7528 61.3106 30.9984 60.3393 33.8137L71.9775 45.4523C74.7932 44.4822 78.0421 45.1098 80.291 47.3624C83.434 50.5042 83.434 55.5962 80.291 58.7401C77.1471 61.8844 72.055 61.8844 68.9095 58.7401C66.5454 56.3735 65.9613 52.9015 67.1582 49.989L56.3046 39.1354L56.3034 67.6975C57.0902 68.0865 57.8088 68.6004 58.4313 69.2192C61.5743 72.361 61.5743 77.4535 58.4313 80.5998C55.2874 83.7424 50.1929 83.7424 47.0535 80.5998C43.9105 77.4535 43.9105 72.3614 47.0535 69.2196C47.8067 68.466 48.7019 67.8692 49.6871 67.4637V38.6355C48.7004 38.2327 47.8048 37.6355 47.0535 36.8796C44.6722 34.5015 44.0996 31.0074 45.3198 28.0834L33.4154 16.1778L1.98105 47.6101C-0.660352 50.2527 -0.660352 54.5352 1.98105 57.1758L47.8259 103.018C50.4652 105.659 54.7464 105.659 57.3891 103.018L103.019 57.3886C105.66 54.7472 105.66 50.4623 103.019 47.8221" fill="#DE4C36"/>
</g>
<defs>
<clipPath id="clip0_19_1601">
<rect width="105" height="105" fill="white"/>
</clipPath>
</defs>
</svg>
