<svg width="120" height="120" viewBox="0 0 120 120" fill="none" xmlns="http://www.w3.org/2000/svg">
    <path d="M7.99096 73.3661C5.61653 66.3358 4.9316 58.9148 6.30146 51.2769C6.89507 48.1089 7.80831 45.0711 8.81288 41.9899C8.81288 41.9899 15.1142 22.331 36.4384 13.3477C36.4384 13.3477 43.79 9.65896 54.8403 9.39857C54.8403 9.39857 53.3334 8.00986 52.3745 7.4023C47.169 4.10411 39.4065 3.01917 34.7033 7.66268C33.2878 9.05139 32.1005 10.5703 30.7763 11.959C29.2695 13.5213 27.443 14.8232 25.3426 15.561C23.5161 16.2119 21.6896 16.0817 19.8174 16.3855C17.8996 16.6893 15.9362 17.3403 14.3837 18.512C12.6942 19.8139 12.0092 21.5498 11.8266 23.5461C11.6439 25.1084 11.6896 26.7141 11.5983 28.2764C11.37 32.8765 9.81744 34.1784 6.34713 36.7388C4.88594 37.7804 3.65306 39.1691 2.73982 40.6446C9.4533e-05 45.2447 4.38366 50.0184 4.61197 54.6619C4.65763 55.6166 4.5663 56.5714 4.20101 57.4827C3.83571 58.4809 3.10512 59.1318 2.51151 59.9564C1.68959 61.0413 1.14165 62.3432 1.36996 63.6885C1.59827 65.0339 2.32886 66.2924 3.01379 67.4641C4.33799 69.5472 5.98183 71.4133 7.71699 73.1925C7.80831 73.1925 7.89964 73.2793 7.99096 73.3661Z"
          fill="#E32286"/>
    <path d="M95.1144 90.0309C105.617 85.6912 110.092 78.1835 110.092 78.1835C119.909 65.4681 116.576 52.0583 116.576 52.0583C110.32 64.9907 104.612 68.5493 104.612 68.5493C120 46.2865 104.703 32.8334 104.703 32.8334C110.959 45.5054 102.649 60.9548 102.649 60.9548C95.6623 74.9287 85.7536 79.9194 85.7536 79.9194C96.8039 81.8723 104.932 74.7985 104.932 74.7985C89.087 91.0725 71.918 90.2913 71.918 90.2913C79.1326 97.9726 89.9545 97.3217 89.9545 97.3217C75.7993 100.49 62.5116 96.0198 51.5984 87.3837C49.5436 85.778 47.5801 84.0421 45.7536 82.176C45.7536 82.176 44.1098 80.5269 43.7902 80.093L43.7445 80.0496C43.5162 88.0781 52.329 95.5424 52.329 95.5424C41.2787 91.2027 36.2103 81.7855 36.2103 81.7855C36.2103 81.7855 28.7673 69.721 34.1555 55.9641C39.5436 42.2072 55.845 39.2562 55.845 39.2562C69.3153 45.462 80.7308 47.4148 80.7308 47.4148C104.795 51.2338 103.425 40.0373 103.425 40.0373C103.653 30.4031 88.3564 20.1614 88.3564 20.1614C61.0961 0.936378 36.4386 13.348 36.4386 13.348C15.1144 22.3312 8.81299 41.9902 8.81299 41.9902C7.80843 45.0714 6.89518 48.1092 6.30158 51.2772C3.97281 64.1662 7.48879 76.3608 15.1144 87.2101C26.9865 104.048 46.2559 109.863 46.2559 109.863C74.7947 119.064 94.2924 105.524 94.2924 105.524C112.238 93.8065 115.845 80.2666 115.845 80.2666C101.37 91.0291 95.1144 90.0309 95.1144 90.0309ZM72.8313 26.7143C74.2011 26.7143 75.297 27.7559 75.297 29.0578C75.297 30.3597 74.2011 31.4013 72.8313 31.4013C71.4614 31.4013 70.3655 30.3597 70.3655 29.0578C70.3655 27.7559 71.4614 26.7143 72.8313 26.7143Z"
          fill="url(#paint0_linear_19_1675)"/>
    <path d="M103.379 39.9939C103.607 30.3597 88.3106 20.1179 88.3106 20.1179C61.0503 0.936342 36.3928 13.348 36.3928 13.348C15.0686 22.3312 8.76721 41.9902 8.76721 41.9902C7.53433 45.3317 6.43844 50.4526 6.43844 50.4526C5.11424 56.8754 5.70785 62.8208 5.70785 62.8208C6.25579 68.5059 7.58 72.3248 7.58 72.3248C8.94986 76.4042 9.58913 77.6627 9.58913 77.6627C9.54346 77.5325 9.31516 76.5778 9.31516 76.5778C9.31516 76.5778 7.39735 67.8115 9.17817 59.3925C9.17817 59.3925 10.7307 50.6262 17.0321 43.8562C17.0321 43.8562 27.2604 30.0125 46.3015 35.4372C46.3015 35.4372 50.411 36.8259 51.8266 37.5202C53.2421 38.1712 55.7079 39.1693 55.7079 39.1693C69.1782 45.3751 80.5937 47.328 80.5937 47.328C104.749 51.1904 103.379 39.9939 103.379 39.9939ZM72.8311 31.4446C71.4613 31.4446 70.3654 30.4031 70.3654 29.1012C70.3654 27.7992 71.4613 26.7577 72.8311 26.7577C74.201 26.7577 75.2969 27.7992 75.2969 29.1012C75.2969 30.4031 74.201 31.4446 72.8311 31.4446Z"
          fill="url(#paint1_radial_19_1675)"/>
    <path d="M57.2147 22.5481L41.644 17.948C41.5526 17.948 41.096 17.731 40.2741 17.948C40.2741 17.948 31.096 20.1613 32.6942 24.935C32.6942 24.935 33.6531 27.9294 36.2558 30.837L53.3791 30.0558L57.2147 22.5481Z"
          fill="url(#paint2_linear_19_1675)"/>
    <defs>
        <linearGradient id="paint0_linear_19_1675" x1="18.9025" y1="104.786" x2="72.6656" y2="44.607"
                        gradientUnits="userSpaceOnUse">
            <stop stop-color="#E01D84"/>
            <stop offset="0.401" stop-color="#DF1D85"/>
            <stop offset="0.77" stop-color="#932C87"/>
            <stop offset="1" stop-color="#5D2F88"/>
        </linearGradient>
        <radialGradient id="paint1_radial_19_1675" cx="0" cy="0" r="1" gradientUnits="userSpaceOnUse"
                        gradientTransform="translate(81.441 32.0971) rotate(0.130145) scale(55.517 44.1208)">
            <stop stop-color="#E01D84"/>
            <stop offset="0.139" stop-color="#DE1E85"/>
            <stop offset="0.285" stop-color="#D62085"/>
            <stop offset="0.434" stop-color="#C92386"/>
            <stop offset="0.586" stop-color="#B72786"/>
            <stop offset="0.739" stop-color="#9D2B87"/>
            <stop offset="0.891" stop-color="#7C2E88"/>
            <stop offset="1" stop-color="#5D2F88"/>
        </radialGradient>
        <linearGradient id="paint2_linear_19_1675" x1="32.4714" y1="24.343" x2="57.2015" y2="24.343"
                        gradientUnits="userSpaceOnUse">
            <stop stop-color="#E01D84"/>
            <stop offset="0.238" stop-color="#DA1E85"/>
            <stop offset="0.658" stop-color="#C72085"/>
            <stop offset="0.999" stop-color="#B52284"/>
        </linearGradient>
    </defs>
</svg>
